<svg xmlns="http://www.w3.org/2000/svg" xmlns:xlink="http://www.w3.org/1999/xlink" version="1.1" baseProfile="full" style="user-select: none; position: absolute; left: 0px; top: 0px;" width="1024" height="600"><g><rect width="1024" height="600" x="0" y="0" id="0" fill="#FFF" fill-opacity="1"></rect></g><g><defs><clipPath id="zr2323-clip-0"><path d="M 66 59 L 871 59 L 871 551 L 66 551 L 66 59 Z" fill="#000" fill-opacity="1" stroke="none"></path></clipPath></defs><path d="M 67.72 550.5 L 870.4 550.5" fill="none" stroke="#E0E6F1" stroke-width="1" paint-order="fill" stroke-opacity="1" stroke-dasharray="none" stroke-linecap="butt" stroke-miterlimit="10"></path><path d="M 67.72 452.5 L 870.4 452.5" fill="none" stroke="#E0E6F1" stroke-width="1" paint-order="fill" stroke-opacity="1" stroke-dasharray="none" stroke-linecap="butt" stroke-miterlimit="10"></path><path d="M 67.72 354.5 L 870.4 354.5" fill="none" stroke="#E0E6F1" stroke-width="1" paint-order="fill" stroke-opacity="1" stroke-dasharray="none" stroke-linecap="butt" stroke-miterlimit="10"></path><path d="M 67.72 256.5 L 870.4 256.5" fill="none" stroke="#E0E6F1" stroke-width="1" paint-order="fill" stroke-opacity="1" stroke-dasharray="none" stroke-linecap="butt" stroke-miterlimit="10"></path><path d="M 67.72 158.5 L 870.4 158.5" fill="none" stroke="#E0E6F1" stroke-width="1" paint-order="fill" stroke-opacity="1" stroke-dasharray="none" stroke-linecap="butt" stroke-miterlimit="10"></path><path d="M 67.72 60.5 L 870.4 60.5" fill="none" stroke="#E0E6F1" stroke-width="1" paint-order="fill" stroke-opacity="1" stroke-dasharray="none" stroke-linecap="butt" stroke-miterlimit="10"></path><path d="M 67.72 550.5 L 870.4 550.5" fill="none" stroke="#6E7079" stroke-width="1" paint-order="fill" stroke-opacity="1" stroke-dasharray="none" stroke-linecap="round" stroke-miterlimit="10"></path><path d="M 186.5 550 L 186.5 555" fill="none" stroke="#6E7079" stroke-width="1" paint-order="fill" stroke-opacity="1" stroke-dasharray="none" stroke-linecap="butt" stroke-miterlimit="10"></path><path d="M 320.5 550 L 320.5 555" fill="none" stroke="#6E7079" stroke-width="1" paint-order="fill" stroke-opacity="1" stroke-dasharray="none" stroke-linecap="butt" stroke-miterlimit="10"></path><path d="M 453.5 550 L 453.5 555" fill="none" stroke="#6E7079" stroke-width="1" paint-order="fill" stroke-opacity="1" stroke-dasharray="none" stroke-linecap="butt" stroke-miterlimit="10"></path><path d="M 587.5 550 L 587.5 555" fill="none" stroke="#6E7079" stroke-width="1" paint-order="fill" stroke-opacity="1" stroke-dasharray="none" stroke-linecap="butt" stroke-miterlimit="10"></path><path d="M 721.5 550 L 721.5 555" fill="none" stroke="#6E7079" stroke-width="1" paint-order="fill" stroke-opacity="1" stroke-dasharray="none" stroke-linecap="butt" stroke-miterlimit="10"></path><path d="M 855.5 550 L 855.5 555" fill="none" stroke="#6E7079" stroke-width="1" paint-order="fill" stroke-opacity="1" stroke-dasharray="none" stroke-linecap="butt" stroke-miterlimit="10"></path><text xml:space="preserve" style="font: sans-serif 12px normal normal normal 12px;" fill="#6E7079" fill-opacity="1" stroke="none" transform="matrix(1,0,0,1,59.72,550)" dominant-baseline="central" text-anchor="end" x="0" y="0">0ms</text><text xml:space="preserve" style="font: sans-serif 12px normal normal normal 12px;" fill="#6E7079" fill-opacity="1" stroke="none" transform="matrix(1,0,0,1,59.72,452)" dominant-baseline="central" text-anchor="end" x="0" y="0">2ms</text><text xml:space="preserve" style="font: sans-serif 12px normal normal normal 12px;" fill="#6E7079" fill-opacity="1" stroke="none" transform="matrix(1,0,0,1,59.72,354)" dominant-baseline="central" text-anchor="end" x="0" y="0">4ms</text><text xml:space="preserve" style="font: sans-serif 12px normal normal normal 12px;" fill="#6E7079" fill-opacity="1" stroke="none" transform="matrix(1,0,0,1,59.72,256)" dominant-baseline="central" text-anchor="end" x="0" y="0">6ms</text><text xml:space="preserve" style="font: sans-serif 12px normal normal normal 12px;" fill="#6E7079" fill-opacity="1" stroke="none" transform="matrix(1,0,0,1,59.72,158)" dominant-baseline="central" text-anchor="end" x="0" y="0">8ms</text><text xml:space="preserve" style="font: sans-serif 12px normal normal normal 12px;" fill="#6E7079" fill-opacity="1" stroke="none" transform="matrix(1,0,0,1,59.72,60)" dominant-baseline="central" text-anchor="end" x="0" y="0">10ms</text><text xml:space="preserve" style="font: sans-serif 12px normal normal normal 12px;" fill="#6E7079" fill-opacity="1" stroke="none" transform="matrix(1,0,0,1,186.1142,558)" dominant-baseline="central" text-anchor="middle" x="0" y="6">2021-11-22</text><text xml:space="preserve" style="font: sans-serif 12px normal normal normal 12px;" fill="#6E7079" fill-opacity="1" stroke="none" transform="matrix(1,0,0,1,186.1142,558)" dominant-baseline="central" text-anchor="middle" x="0" y="18">11:10:00</text><text xml:space="preserve" style="font: sans-serif 12px normal normal normal 12px;" fill="#6E7079" fill-opacity="1" stroke="none" transform="matrix(1,0,0,1,453.6849,558)" dominant-baseline="central" text-anchor="middle" x="0" y="6">2021-11-22</text><text xml:space="preserve" style="font: sans-serif 12px normal normal normal 12px;" fill="#6E7079" fill-opacity="1" stroke="none" transform="matrix(1,0,0,1,453.6849,558)" dominant-baseline="central" text-anchor="middle" x="0" y="18">11:11:00</text><text xml:space="preserve" style="font: sans-serif 12px normal normal normal 12px;" fill="#6E7079" fill-opacity="1" stroke="none" transform="matrix(1,0,0,1,587.4703,558)" dominant-baseline="central" text-anchor="middle" x="0" y="6">2021-11-22</text><text xml:space="preserve" style="font: sans-serif 12px normal normal normal 12px;" fill="#6E7079" fill-opacity="1" stroke="none" transform="matrix(1,0,0,1,587.4703,558)" dominant-baseline="central" text-anchor="middle" x="0" y="18">11:11:00</text><text xml:space="preserve" style="font: sans-serif 12px normal normal normal 12px;" fill="#6E7079" fill-opacity="1" stroke="none" transform="matrix(1,0,0,1,721.2556,558)" dominant-baseline="central" text-anchor="middle" x="0" y="6">2021-11-22</text><text xml:space="preserve" style="font: sans-serif 12px normal normal normal 12px;" fill="#6E7079" fill-opacity="1" stroke="none" transform="matrix(1,0,0,1,721.2556,558)" dominant-baseline="central" text-anchor="middle" x="0" y="18">11:11:00</text><text xml:space="preserve" style="font: sans-serif 12px normal normal normal 12px;" fill="#6E7079" fill-opacity="1" stroke="none" transform="matrix(1,0,0,1,855.041,558)" dominant-baseline="central" text-anchor="middle" x="0" y="6">2021-11-22</text><text xml:space="preserve" style="font: sans-serif 12px normal normal normal 12px;" fill="#6E7079" fill-opacity="1" stroke="none" transform="matrix(1,0,0,1,855.041,558)" dominant-baseline="central" text-anchor="middle" x="0" y="18">11:11:00</text><text xml:space="preserve" style="font: sans-serif 12px normal normal normal 12px;" fill="#6E7079" fill-opacity="1" stroke="none" transform="matrix(1,0,0,1,319.8996,558)" dominant-baseline="central" text-anchor="middle" x="0" y="6">2021-11-22</text><text xml:space="preserve" style="font: sans-serif 12px normal normal normal 12px;" fill="#6E7079" fill-opacity="1" stroke="none" transform="matrix(1,0,0,1,319.8996,558)" dominant-baseline="central" text-anchor="middle" x="0" y="18">11:11:00</text><g clip-path="url(#zr2323-clip-0)"><path d="M 67.72 328.254 C 67.72 328.254 68.1113 328.254 68.5026 328.254 C 68.5418 328.254 68.894 328.254 69.2853 328.254 C 69.3244 328.254 69.6766 328.254 70.0679 328.254 C 70.1071 328.254 70.3435 311.2587 70.694 311.2587 C 70.6957 311.2587 71.0854 311.2587 71.4767 311.2587 C 71.5158 311.2587 71.868 311.2587 72.2593 311.2587 C 72.2985 311.2587 72.6507 311.2587 73.042 311.2587 C 73.0811 311.2587 73.4333 311.2587 73.8246 311.2587 C 73.8638 311.2587 73.9034 336.4411 74.0594 336.4411 C 74.0599 336.4411 74.4507 336.4411 74.8421 336.4411 C 74.8812 336.4411 75.2334 336.4411 75.6247 336.4411 C 75.6638 336.4411 76.016 336.4411 76.4073 336.4411 C 76.4465 336.4411 76.7987 336.4411 77.19 336.4411 C 77.2291 336.4411 77.5813 336.4411 77.9726 336.4411 C 78.0118 336.4411 78.364 336.4411 78.7553 336.4411 C 78.7944 336.4411 79.1466 336.4411 79.5379 336.4411 C 79.5771 336.4411 79.9292 336.4411 80.3206 336.4411 C 80.3597 336.4411 80.7119 336.4411 81.1032 336.4411 C 81.1423 336.4411 81.4945 336.4411 81.8859 336.4411 C 81.925 336.4411 82.2772 336.4411 82.6685 336.4411 C 82.7076 336.4411 83.0598 336.4411 83.4511 336.4411 C 83.4903 336.4411 83.8425 336.4411 84.2338 336.4411 C 84.2729 336.4411 84.6251 336.4411 85.0164 336.4411 C 85.0556 336.4411 85.4078 336.4411 85.7991 336.4411 C 85.8382 336.4411 86.1904 336.4411 86.5817 336.4411 C 86.6209 336.4411 87.3625 336.4411 87.3644 336.4411 C 87.4426 336.4411 87.3646 304.107 87.4426 304.107 C 87.4428 304.107 87.834 304.107 88.2253 304.107 C 88.2644 304.107 88.6166 304.107 89.0079 304.107 C 89.0471 304.107 89.3993 304.107 89.7906 304.107 C 89.8297 304.107 90.1819 304.107 90.5732 304.107 C 90.6123 304.107 90.6131 316.3607 90.7297 316.3607 C 90.7305 316.3607 91.1211 316.3607 91.5124 316.3607 C 91.5515 316.3607 91.9037 316.3607 92.295 316.3607 C 92.3342 316.3607 92.6864 316.3607 93.0777 316.3607 C 93.1168 316.3607 93.469 316.3607 93.8603 316.3607 C 93.8995 316.3607 94.2516 316.3607 94.643 316.3607 C 94.6821 316.3607 95.0343 316.3607 95.4256 316.3607 C 95.4647 316.3607 95.8169 316.3607 96.2083 316.3607 C 96.2474 316.3607 96.5996 316.3607 96.9909 316.3607 C 97.03 316.3607 97.3822 316.3607 97.7735 316.3607 C 97.8127 316.3607 98.1649 316.3607 98.5562 316.3607 C 98.5953 316.3607 98.9475 316.3607 99.3388 316.3607 C 99.378 316.3607 99.7302 316.3607 100.1215 316.3607 C 100.1606 316.3607 100.5128 316.3607 100.9041 316.3607 C 100.9433 316.3607 101.2954 316.3607 101.6868 316.3607 C 101.7259 316.3607 102.0781 316.3607 102.4694 316.3607 C 102.5085 316.3607 102.8607 316.3607 103.2521 316.3607 C 103.2912 316.3607 104.0317 316.3607 104.0347 316.3607 C 104.113 316.3607 104.035 295.7279 104.113 295.7279 C 104.1133 295.7279 104.5043 295.7279 104.8956 295.7279 C 104.9347 295.7279 105.2869 295.7279 105.6782 295.7279 C 105.7174 295.7279 106.0696 295.7279 106.4609 295.7279 C 106.5 295.7279 106.8522 295.7279 107.2435 295.7279 C 107.2827 295.7279 107.3228 308.0258 107.4783 308.0258 C 107.4793 308.0258 107.8697 308.0258 108.261 308.0258 C 108.3001 308.0258 108.6523 308.0258 109.0436 308.0258 C 109.0828 308.0258 109.4349 308.0258 109.8263 308.0258 C 109.8654 308.0258 110.2176 308.0258 110.6089 308.0258 C 110.648 308.0258 111.0002 308.0258 111.3916 308.0258 C 111.4307 308.0258 111.7829 308.0258 112.1742 308.0258 C 112.2133 308.0258 112.5655 308.0258 112.9568 308.0258 C 112.996 308.0258 113.3482 308.0258 113.7395 308.0258 C 113.7786 308.0258 114.1308 308.0258 114.5221 308.0258 C 114.5613 308.0258 114.9135 308.0258 115.3048 308.0258 C 115.3439 308.0258 115.6961 308.0258 116.0874 308.0258 C 116.1265 308.0258 116.4787 308.0258 116.8701 308.0258 C 116.9092 308.0258 117.2614 308.0258 117.6527 308.0258 C 117.6918 308.0258 118.044 308.0258 118.4353 308.0258 C 118.4745 308.0258 118.8267 308.0258 119.218 308.0258 C 119.2571 308.0258 119.6093 308.0258 120.0006 308.0258 C 120.0398 308.0258 120.7823 308.0258 120.7833 308.0258 C 120.8615 308.0258 120.7834 370.0099 120.8615 370.0099 C 120.8616 370.0099 121.2529 370.0099 121.6442 370.0099 C 121.6833 370.0099 122.0355 370.0099 122.4268 370.0099 C 122.466 370.0099 122.8182 370.0099 123.2095 370.0099 C 123.2486 370.0099 123.6008 370.0099 123.9921 370.0099 C 124.0313 370.0099 124.0713 384.1347 124.2269 384.1347 C 124.2278 384.1347 124.6182 384.1347 125.0096 384.1347 C 125.0487 384.1347 125.4009 384.1347 125.7922 384.1347 C 125.8313 384.1347 126.1835 384.1347 126.5749 384.1347 C 126.614 384.1347 126.9662 384.1347 127.3575 384.1347 C 127.3966 384.1347 127.7488 384.1347 128.1401 384.1347 C 128.1793 384.1347 128.5315 384.1347 128.9228 384.1347 C 128.9619 384.1347 129.3141 384.1347 129.7054 384.1347 C 129.7446 384.1347 130.0967 384.1347 130.4881 384.1347 C 130.5272 384.1347 130.8794 384.1347 131.2707 384.1347 C 131.3099 384.1347 131.662 384.1347 132.0534 384.1347 C 132.0925 384.1347 132.4447 384.1347 132.836 384.1347 C 132.8751 384.1347 133.2273 384.1347 133.6187 384.1347 C 133.6578 384.1347 134.01 384.1347 134.4013 384.1347 C 134.4404 384.1347 134.7926 384.1347 135.1839 384.1347 C 135.2231 384.1347 135.5753 384.1347 135.9666 384.1347 C 136.0057 384.1347 136.3579 384.1347 136.7492 384.1347 C 136.7884 384.1347 137.5253 384.1347 137.5319 384.1347 C 137.6101 384.1347 137.5325 374.8502 137.6101 374.8502 C 137.6108 374.8502 138.0015 374.8502 138.3928 374.8502 C 138.4319 374.8502 138.7841 374.8502 139.1754 374.8502 C 139.2146 374.8502 139.5667 374.8502 139.9581 374.8502 C 139.9972 374.8502 140.3494 374.8502 140.7407 374.8502 C 140.7798 374.8502 140.7802 350.9369 140.8972 350.9369 C 140.8976 350.9369 141.2886 350.9369 141.6799 350.9369 C 141.719 350.9369 142.0712 350.9369 142.4625 350.9369 C 142.5017 350.9369 142.8539 350.9369 143.2452 350.9369 C 143.2843 350.9369 143.6365 350.9369 144.0278 350.9369 C 144.0669 350.9369 144.4191 350.9369 144.8105 350.9369 C 144.8496 350.9369 145.2018 350.9369 145.5931 350.9369 C 145.6322 350.9369 145.9844 350.9369 146.3757 350.9369 C 146.4149 350.9369 146.7671 350.9369 147.1584 350.9369 C 147.1975 350.9369 147.5497 350.9369 147.941 350.9369 C 147.9802 350.9369 148.3324 350.9369 148.7237 350.9369 C 148.7628 350.9369 149.115 350.9369 149.5063 350.9369 C 149.5455 350.9369 149.8977 350.9369 150.289 350.9369 C 150.3281 350.9369 150.6803 350.9369 151.0716 350.9369 C 151.1108 350.9369 151.4629 350.9369 151.8543 350.9369 C 151.8934 350.9369 152.2456 350.9369 152.6369 350.9369 C 152.676 350.9369 153.0282 350.9369 153.4196 350.9369 C 153.4587 350.9369 154.1186 350.9369 154.2022 350.9369 C 154.2805 350.9369 154.2097 350.2086 154.2805 350.2086 C 154.288 350.2086 154.6718 350.2086 155.0631 350.2086 C 155.1022 350.2086 155.4544 350.2086 155.8457 350.2086 C 155.8849 350.2086 156.2371 350.2086 156.6284 350.2086 C 156.6675 350.2086 157.0197 350.2086 157.411 350.2086 C 157.4502 350.2086 157.4896 312.7532 157.6458 312.7532 C 157.6462 312.7532 158.0372 312.7532 158.4285 312.7532 C 158.4676 312.7532 158.8198 312.7532 159.2111 312.7532 C 159.2503 312.7532 159.6024 312.7532 159.9938 312.7532 C 160.0329 312.7532 160.3851 312.7532 160.7764 312.7532 C 160.8155 312.7532 161.1677 312.7532 161.5591 312.7532 C 161.5982 312.7532 161.9504 312.7532 162.3417 312.7532 C 162.3808 312.7532 162.733 312.7532 163.1243 312.7532 C 163.1635 312.7532 163.5157 312.7532 163.907 312.7532 C 163.9461 312.7532 164.2983 312.7532 164.6896 312.7532 C 164.7288 312.7532 165.081 312.7532 165.4723 312.7532 C 165.5114 312.7532 165.8636 312.7532 166.2549 312.7532 C 166.294 312.7532 166.6462 312.7532 167.0376 312.7532 C 167.0767 312.7532 167.4289 312.7532 167.8202 312.7532 C 167.8593 312.7532 168.2115 312.7532 168.6028 312.7532 C 168.642 312.7532 168.9942 312.7532 169.3855 312.7532 C 169.4246 312.7532 169.7768 312.7532 170.1681 312.7532 C 170.2073 312.7532 170.9451 312.7532 170.9508 312.7532 C 171.0291 312.7532 170.9514 302.0311 171.0291 302.0311 C 171.0296 302.0311 171.4204 302.0311 171.8117 302.0311 C 171.8508 302.0311 172.203 302.0311 172.5943 302.0311 C 172.6335 302.0311 172.9857 302.0311 173.377 302.0311 C 173.4161 302.0311 173.7683 302.0311 174.1596 302.0311 C 174.1988 302.0311 174.2385 322.3291 174.3944 322.3291 C 174.395 322.3291 174.7857 322.3291 175.1771 322.3291 C 175.2162 322.3291 175.5684 322.3291 175.9597 322.3291 C 175.9988 322.3291 176.351 322.3291 176.7424 322.3291 C 176.7815 322.3291 177.1337 322.3291 177.525 322.3291 C 177.5641 322.3291 177.9163 322.3291 178.3076 322.3291 C 178.3468 322.3291 178.699 322.3291 179.0903 322.3291 C 179.1294 322.3291 179.4816 322.3291 179.8729 322.3291 C 179.9121 322.3291 180.2643 322.3291 180.6556 322.3291 C 180.6947 322.3291 181.0469 322.3291 181.4382 322.3291 C 181.4773 322.3291 181.8295 322.3291 182.2209 322.3291 C 182.26 322.3291 182.6122 322.3291 183.0035 322.3291 C 183.0426 322.3291 183.3948 322.3291 183.7861 322.3291 C 183.8253 322.3291 184.1775 322.3291 184.5688 322.3291 C 184.6079 322.3291 184.9601 322.3291 185.3514 322.3291 C 185.3906 322.3291 185.7428 322.3291 186.1341 322.3291 C 186.1732 322.3291 186.5254 322.3291 186.9167 322.3291 C 186.9559 322.3291 187.6976 322.3291 187.6994 322.3291 C 187.7776 322.3291 187.6995 287.6024 187.7776 287.6024 C 187.7778 287.6024 188.169 287.6024 188.5603 287.6024 C 188.5994 287.6024 188.9516 287.6024 189.3429 287.6024 C 189.3821 287.6024 189.7342 287.6024 190.1256 287.6024 C 190.1647 287.6024 190.5169 287.6024 190.9082 287.6024 C 190.9473 287.6024 190.9477 313.6536 191.0647 313.6536 C 191.0651 313.6536 191.4561 313.6536 191.8474 313.6536 C 191.8865 313.6536 192.2387 313.6536 192.63 313.6536 C 192.6692 313.6536 193.0214 313.6536 193.4127 313.6536 C 193.4518 313.6536 193.804 313.6536 194.1953 313.6536 C 194.2345 313.6536 194.5866 313.6536 194.978 313.6536 C 195.0171 313.6536 195.3693 313.6536 195.7606 313.6536 C 195.7997 313.6536 196.1519 313.6536 196.5433 313.6536 C 196.5824 313.6536 196.9346 313.6536 197.3259 313.6536 C 197.365 313.6536 197.7172 313.6536 198.1085 313.6536 C 198.1477 313.6536 198.4999 313.6536 198.8912 313.6536 C 198.9303 313.6536 199.2825 313.6536 199.6738 313.6536 C 199.713 313.6536 200.0652 313.6536 200.4565 313.6536 C 200.4956 313.6536 200.8478 313.6536 201.2391 313.6536 C 201.2783 313.6536 201.6304 313.6536 202.0218 313.6536 C 202.0609 313.6536 202.4131 313.6536 202.8044 313.6536 C 202.8435 313.6536 203.1957 313.6536 203.5871 313.6536 C 203.6262 313.6536 204.3644 313.6536 204.3697 313.6536 C 204.448 313.6536 204.3702 325.1392 204.448 325.1392 C 204.4485 325.1392 204.8393 325.1392 205.2306 325.1392 C 205.2697 325.1392 205.6219 325.1392 206.0132 325.1392 C 206.0524 325.1392 206.4046 325.1392 206.7959 325.1392 C 206.835 325.1392 207.1872 325.1392 207.5785 325.1392 C 207.6177 325.1392 207.6574 346.5825 207.8133 346.5825 C 207.8139 346.5825 208.2047 346.5825 208.596 346.5825 C 208.6351 346.5825 208.9873 346.5825 209.3786 346.5825 C 209.4177 346.5825 209.7699 346.5825 210.1613 346.5825 C 210.2004 346.5825 210.5526 346.5825 210.9439 346.5825 C 210.983 346.5825 211.3352 346.5825 211.7265 346.5825 C 211.7657 346.5825 212.1179 346.5825 212.5092 346.5825 C 212.5483 346.5825 212.9005 346.5825 213.2918 346.5825 C 213.331 346.5825 213.6832 346.5825 214.0745 346.5825 C 214.1136 346.5825 214.4658 346.5825 214.8571 346.5825 C 214.8963 346.5825 215.2485 346.5825 215.6398 346.5825 C 215.6789 346.5825 216.0311 346.5825 216.4224 346.5825 C 216.4616 346.5825 216.8137 346.5825 217.2051 346.5825 C 217.2442 346.5825 217.5964 346.5825 217.9877 346.5825 C 218.0268 346.5825 218.379 346.5825 218.7704 346.5825 C 218.8095 346.5825 219.1617 346.5825 219.553 346.5825 C 219.5921 346.5825 219.9443 346.5825 220.3356 346.5825 C 220.3748 346.5825 221.117 346.5825 221.1183 346.5825 C 221.1965 346.5825 221.1184 395.3142 221.1965 395.3142 C 221.1967 395.3142 221.5879 395.3142 221.9792 395.3142 C 222.0183 395.3142 222.3705 395.3142 222.7618 395.3142 C 222.801 395.3142 223.1532 395.3142 223.5445 395.3142 C 223.5836 395.3142 223.9358 395.3142 224.3271 395.3142 C 224.3663 395.3142 224.4082 391.0335 224.5619 391.0335 C 224.5647 391.0335 224.9532 391.0335 225.3446 391.0335 C 225.3837 391.0335 225.7359 391.0335 226.1272 391.0335 C 226.1663 391.0335 226.5185 391.0335 226.9099 391.0335 C 226.949 391.0335 227.3012 391.0335 227.6925 391.0335 C 227.7316 391.0335 228.0838 391.0335 228.4751 391.0335 C 228.5143 391.0335 228.8665 391.0335 229.2578 391.0335 C 229.2969 391.0335 229.6491 391.0335 230.0404 391.0335 C 230.0796 391.0335 230.4318 391.0335 230.8231 391.0335 C 230.8622 391.0335 231.2144 391.0335 231.6057 391.0335 C 231.6448 391.0335 231.997 391.0335 232.3884 391.0335 C 232.4275 391.0335 232.7797 391.0335 233.171 391.0335 C 233.2101 391.0335 233.5623 391.0335 233.9536 391.0335 C 233.9928 391.0335 234.345 391.0335 234.7363 391.0335 C 234.7754 391.0335 235.1276 391.0335 235.5189 391.0335 C 235.5581 391.0335 235.9103 391.0335 236.3016 391.0335 C 236.3407 391.0335 236.6929 391.0335 237.0842 391.0335 C 237.1234 391.0335 237.8434 391.0335 237.8669 391.0335 C 237.9451 391.0335 237.8691 393.637 237.9451 393.637 C 237.9474 393.637 238.3365 393.637 238.7278 393.637 C 238.7669 393.637 239.1191 393.637 239.5104 393.637 C 239.5496 393.637 239.9017 393.637 240.2931 393.637 C 240.3322 393.637 240.6844 393.637 241.0757 393.637 C 241.1148 393.637 241.115 323.8765 241.2322 323.8765 C 241.2324 323.8765 241.6236 323.8765 242.0149 323.8765 C 242.054 323.8765 242.4062 323.8765 242.7975 323.8765 C 242.8367 323.8765 243.1889 323.8765 243.5802 323.8765 C 243.6193 323.8765 243.9715 323.8765 244.3628 323.8765 C 244.402 323.8765 244.7541 323.8765 245.1455 323.8765 C 245.1846 323.8765 245.5368 323.8765 245.9281 323.8765 C 245.9672 323.8765 246.3194 323.8765 246.7108 323.8765 C 246.7499 323.8765 247.1021 323.8765 247.4934 323.8765 C 247.5325 323.8765 247.8847 323.8765 248.276 323.8765 C 248.3152 323.8765 248.6674 323.8765 249.0587 323.8765 C 249.0978 323.8765 249.45 323.8765 249.8413 323.8765 C 249.8805 323.8765 250.2327 323.8765 250.624 323.8765 C 250.6631 323.8765 251.0153 323.8765 251.4066 323.8765 C 251.4457 323.8765 251.7979 323.8765 252.1893 323.8765 C 252.2284 323.8765 252.5806 323.8765 252.9719 323.8765 C 253.011 323.8765 253.3632 323.8765 253.7545 323.8765 C 253.7937 323.8765 254.5345 323.8765 254.5372 323.8765 C 254.6155 323.8765 254.5375 301.233 254.6155 301.233 C 254.6157 301.233 255.0068 301.233 255.3981 301.233 C 255.4372 301.233 255.7894 301.233 256.1808 301.233 C 256.2199 301.233 256.5721 301.233 256.9634 301.233 C 257.0025 301.233 257.3547 301.233 257.746 301.233 C 257.7852 301.233 257.8249 322.9733 257.9808 322.9733 C 257.9814 322.9733 258.3722 322.9733 258.7635 322.9733 C 258.8026 322.9733 259.1548 322.9733 259.5461 322.9733 C 259.5853 322.9733 259.9374 322.9733 260.3288 322.9733 C 260.3679 322.9733 260.7201 322.9733 261.1114 322.9733 C 261.1505 322.9733 261.5027 322.9733 261.894 322.9733 C 261.9332 322.9733 262.2854 322.9733 262.6767 322.9733 C 262.7158 322.9733 263.068 322.9733 263.4594 322.9733 C 263.4985 322.9733 263.8507 322.9733 264.242 322.9733 C 264.2811 322.9733 264.6333 322.9733 265.0246 322.9733 C 265.0638 322.9733 265.416 322.9733 265.8073 322.9733 C 265.8464 322.9733 266.1986 322.9733 266.5899 322.9733 C 266.629 322.9733 266.9812 322.9733 267.3726 322.9733 C 267.4117 322.9733 267.7639 322.9733 268.1552 322.9733 C 268.1943 322.9733 268.5465 322.9733 268.9379 322.9733 C 268.977 322.9733 269.3292 322.9733 269.7205 322.9733 C 269.7596 322.9733 270.1118 322.9733 270.5031 322.9733 C 270.5423 322.9733 271.2837 322.9733 271.2858 322.9733 C 271.364 322.9733 271.286 293.6602 271.364 293.6602 C 271.3643 293.6602 271.7554 293.6602 272.1467 293.6602 C 272.1858 293.6602 272.538 293.6602 272.9294 293.6602 C 272.9685 293.6602 273.3207 293.6602 273.712 293.6602 C 273.7511 293.6602 274.1033 293.6602 274.4946 293.6602 C 274.5338 293.6602 274.5753 298.7305 274.7294 298.7305 C 274.7318 298.7305 275.1207 298.7305 275.5121 298.7305 C 275.5512 298.7305 275.9034 298.7305 276.2947 298.7305 C 276.3338 298.7305 276.686 298.7305 277.0774 298.7305 C 277.1165 298.7305 277.4687 298.7305 277.86 298.7305 C 277.8991 298.7305 278.2513 298.7305 278.6426 298.7305 C 278.6818 298.7305 279.034 298.7305 279.4253 298.7305 C 279.4644 298.7305 279.8166 298.7305 280.2079 298.7305 C 280.2471 298.7305 280.5992 298.7305 280.9906 298.7305 C 281.0297 298.7305 281.3819 298.7305 281.7732 298.7305 C 281.8123 298.7305 282.1645 298.7305 282.5558 298.7305 C 282.595 298.7305 282.9472 298.7305 283.3385 298.7305 C 283.3776 298.7305 283.7298 298.7305 284.1212 298.7305 C 284.1603 298.7305 284.5125 298.7305 284.9038 298.7305 C 284.9429 298.7305 285.2951 298.7305 285.6864 298.7305 C 285.7256 298.7305 286.0778 298.7305 286.4691 298.7305 C 286.5082 298.7305 286.8604 298.7305 287.2517 298.7305 C 287.2909 298.7305 288.032 298.7305 288.0344 298.7305 C 288.1126 298.7305 288.0346 272.2436 288.1126 272.2436 C 288.1129 272.2436 288.504 272.2436 288.8953 272.2436 C 288.9344 272.2436 289.2866 272.2436 289.6779 272.2436 C 289.7171 272.2436 290.0692 272.2436 290.4606 272.2436 C 290.4997 272.2436 290.8519 272.2436 291.2432 272.2436 C 291.2823 272.2436 291.2831 284.4185 291.3997 284.4185 C 291.4005 284.4185 291.7911 284.4185 292.1824 284.4185 C 292.2215 284.4185 292.5737 284.4185 292.965 284.4185 C 293.0042 284.4185 293.3564 284.4185 293.7477 284.4185 C 293.7868 284.4185 294.139 284.4185 294.5303 284.4185 C 294.5695 284.4185 294.9216 284.4185 295.313 284.4185 C 295.3521 284.4185 295.7043 284.4185 296.0956 284.4185 C 296.1347 284.4185 296.4869 284.4185 296.8783 284.4185 C 296.9174 284.4185 297.2696 284.4185 297.6609 284.4185 C 297.7 284.4185 298.0522 284.4185 298.4435 284.4185 C 298.4827 284.4185 298.8349 284.4185 299.2262 284.4185 C 299.2653 284.4185 299.6175 284.4185 300.0088 284.4185 C 300.048 284.4185 300.4001 284.4185 300.7915 284.4185 C 300.8306 284.4185 301.1828 284.4185 301.5741 284.4185 C 301.6133 284.4185 301.9654 284.4185 302.3568 284.4185 C 302.3959 284.4185 302.7481 284.4185 303.1394 284.4185 C 303.1785 284.4185 303.5307 284.4185 303.9221 284.4185 C 303.9612 284.4185 304.7036 284.4185 304.7047 284.4185 C 304.783 284.4185 304.7048 341.0262 304.783 341.0262 C 304.7831 341.0262 305.1743 341.0262 305.5656 341.0262 C 305.6047 341.0262 305.9569 341.0262 306.3482 341.0262 C 306.3874 341.0262 306.7396 341.0262 307.1309 341.0262 C 307.17 341.0262 307.5222 341.0262 307.9135 341.0262 C 307.9527 341.0262 307.9926 357.1836 308.1483 357.1836 C 308.1491 357.1836 308.5397 357.1836 308.931 357.1836 C 308.9701 357.1836 309.3223 357.1836 309.7136 357.1836 C 309.7527 357.1836 310.1049 357.1836 310.4963 357.1836 C 310.5354 357.1836 310.8876 357.1836 311.2789 357.1836 C 311.318 357.1836 311.6702 357.1836 312.0616 357.1836 C 312.1007 357.1836 312.4529 357.1836 312.8442 357.1836 C 312.8833 357.1836 313.2355 357.1836 313.6268 357.1836 C 313.666 357.1836 314.0182 357.1836 314.4095 357.1836 C 314.4486 357.1836 314.8008 357.1836 315.1921 357.1836 C 315.2313 357.1836 315.5835 357.1836 315.9748 357.1836 C 316.0139 357.1836 316.3661 357.1836 316.7574 357.1836 C 316.7966 357.1836 317.1487 357.1836 317.5401 357.1836 C 317.5792 357.1836 317.9314 357.1836 318.3227 357.1836 C 318.3618 357.1836 318.714 357.1836 319.1053 357.1836 C 319.1445 357.1836 319.4967 357.1836 319.888 357.1836 C 319.9271 357.1836 320.2793 357.1836 320.6707 357.1836 C 320.7098 357.1836 321.4474 357.1836 321.4533 357.1836 C 321.5316 357.1836 321.4539 346.8468 321.5316 346.8468 C 321.5321 346.8468 321.9229 346.8468 322.3142 346.8468 C 322.3533 346.8468 322.7055 346.8468 323.0968 346.8468 C 323.136 346.8468 323.4882 346.8468 323.8795 346.8468 C 323.9186 346.8468 324.2708 346.8468 324.6621 346.8468 C 324.7013 346.8468 324.7407 309.6345 324.8969 309.6345 C 324.8972 309.6345 325.2882 309.6345 325.6796 309.6345 C 325.7187 309.6345 326.0709 309.6345 326.4622 309.6345 C 326.5013 309.6345 326.8535 309.6345 327.2448 309.6345 C 327.284 309.6345 327.6362 309.6345 328.0275 309.6345 C 328.0666 309.6345 328.4188 309.6345 328.8102 309.6345 C 328.8493 309.6345 329.2015 309.6345 329.5928 309.6345 C 329.6319 309.6345 329.9841 309.6345 330.3754 309.6345 C 330.4146 309.6345 330.7668 309.6345 331.1581 309.6345 C 331.1972 309.6345 331.5494 309.6345 331.9407 309.6345 C 331.9798 309.6345 332.332 309.6345 332.7234 309.6345 C 332.7625 309.6345 333.1147 309.6345 333.506 309.6345 C 333.5451 309.6345 333.8973 309.6345 334.2887 309.6345 C 334.3278 309.6345 334.68 309.6345 335.0713 309.6345 C 335.1104 309.6345 335.4626 309.6345 335.8539 309.6345 C 335.8931 309.6345 336.2453 309.6345 336.6366 309.6345 C 336.6757 309.6345 337.0279 309.6345 337.4192 309.6345 C 337.4584 309.6345 338.1593 309.6345 338.2019 309.6345 C 338.2802 309.6345 338.2059 308.1989 338.2802 308.1989 C 338.2842 308.1989 338.6715 308.1989 339.0628 308.1989 C 339.1019 308.1989 339.4541 308.1989 339.8454 308.1989 C 339.8846 308.1989 340.2368 308.1989 340.6281 308.1989 C 340.6672 308.1989 341.0194 308.1989 341.4107 308.1989 C 341.4498 308.1989 341.4507 297.6796 341.5672 297.6796 C 341.5681 297.6796 341.9586 297.6796 342.3499 297.6796 C 342.389 297.6796 342.7412 297.6796 343.1325 297.6796 C 343.1717 297.6796 343.5238 297.6796 343.9152 297.6796 C 343.9543 297.6796 344.3065 297.6796 344.6978 297.6796 C 344.737 297.6796 345.0891 297.6796 345.4805 297.6796 C 345.5196 297.6796 345.8718 297.6796 346.2631 297.6796 C 346.3022 297.6796 346.6544 297.6796 347.0457 297.6796 C 347.0849 297.6796 347.4371 297.6796 347.8284 297.6796 C 347.8675 297.6796 348.2197 297.6796 348.6111 297.6796 C 348.6502 297.6796 349.0024 297.6796 349.3937 297.6796 C 349.4328 297.6796 349.785 297.6796 350.1763 297.6796 C 350.2155 297.6796 350.5677 297.6796 350.959 297.6796 C 350.9981 297.6796 351.3503 297.6796 351.7416 297.6796 C 351.7807 297.6796 352.1329 297.6796 352.5243 297.6796 C 352.5634 297.6796 352.9156 297.6796 353.3069 297.6796 C 353.346 297.6796 353.6982 297.6796 354.0895 297.6796 C 354.1287 297.6796 354.8643 297.6796 354.8722 297.6796 C 354.9505 297.6796 354.873 289.9251 354.9505 289.9251 C 354.9513 289.9251 355.3418 289.9251 355.7331 289.9251 C 355.7722 289.9251 356.1244 289.9251 356.5157 289.9251 C 356.5549 289.9251 356.9071 289.9251 357.2984 289.9251 C 357.3375 289.9251 357.6897 289.9251 358.081 289.9251 C 358.1202 289.9251 358.1598 264.3613 358.3158 264.3613 C 358.3163 264.3613 358.7072 264.3613 359.0985 264.3613 C 359.1376 264.3613 359.4898 264.3613 359.8811 264.3613 C 359.9203 264.3613 360.2724 264.3613 360.6638 264.3613 C 360.7029 264.3613 361.0551 264.3613 361.4464 264.3613 C 361.4855 264.3613 361.8377 264.3613 362.2291 264.3613 C 362.2682 264.3613 362.6204 264.3613 363.0117 264.3613 C 363.0508 264.3613 363.403 264.3613 363.7943 264.3613 C 363.8335 264.3613 364.1857 264.3613 364.577 264.3613 C 364.6161 264.3613 364.9683 264.3613 365.3596 264.3613 C 365.3988 264.3613 365.7509 264.3613 366.1423 264.3613 C 366.1814 264.3613 366.5336 264.3613 366.9249 264.3613 C 366.9641 264.3613 367.3162 264.3613 367.7076 264.3613 C 367.7467 264.3613 368.0989 264.3613 368.4902 264.3613 C 368.5293 264.3613 368.8815 264.3613 369.2729 264.3613 C 369.312 264.3613 369.6642 264.3613 370.0555 264.3613 C 370.0946 264.3613 370.4468 264.3613 370.8381 264.3613 C 370.8773 264.3613 371.6195 264.3613 371.6208 264.3613 C 371.699 264.3613 371.6209 217.2632 371.699 217.2632 C 371.6992 217.2632 372.0904 217.2632 372.4817 217.2632 C 372.5208 217.2632 372.873 217.2632 373.2643 217.2632 C 373.3035 217.2632 373.6557 217.2632 374.047 217.2632 C 374.0861 217.2632 374.4383 217.2632 374.8296 217.2632 C 374.8688 217.2632 374.9087 233.1074 375.0644 233.1074 C 375.0652 233.1074 375.4557 233.1074 375.8471 233.1074 C 375.8862 233.1074 376.2384 233.1074 376.6297 233.1074 C 376.6688 233.1074 377.021 233.1074 377.4124 233.1074 C 377.4515 233.1074 377.8037 233.1074 378.195 233.1074 C 378.2341 233.1074 378.5863 233.1074 378.9776 233.1074 C 379.0168 233.1074 379.369 233.1074 379.7603 233.1074 C 379.7994 233.1074 380.1516 233.1074 380.5429 233.1074 C 380.5821 233.1074 380.9342 233.1074 381.3256 233.1074 C 381.3647 233.1074 381.7169 233.1074 382.1082 233.1074 C 382.1474 233.1074 382.4995 233.1074 382.8909 233.1074 C 382.93 233.1074 383.2822 233.1074 383.6735 233.1074 C 383.7126 233.1074 384.0648 233.1074 384.4561 233.1074 C 384.4953 233.1074 384.8475 233.1074 385.2388 233.1074 C 385.2779 233.1074 385.6301 233.1074 386.0215 233.1074 C 386.0606 233.1074 386.4128 233.1074 386.8041 233.1074 C 386.8432 233.1074 387.1954 233.1074 387.5867 233.1074 C 387.6259 233.1074 388.3642 233.1074 388.3694 233.1074 C 388.4476 233.1074 388.3699 244.8107 388.4476 244.8107 C 388.4482 244.8107 388.839 244.8107 389.2303 244.8107 C 389.2694 244.8107 389.6216 244.8107 390.0129 244.8107 C 390.0521 244.8107 390.4043 244.8107 390.7956 244.8107 C 390.8347 244.8107 391.1869 244.8107 391.5782 244.8107 C 391.6173 244.8107 391.6178 262.9547 391.7347 262.9547 C 391.7352 262.9547 392.1261 262.9547 392.5174 262.9547 C 392.5565 262.9547 392.9087 262.9547 393.3 262.9547 C 393.3392 262.9547 393.6913 262.9547 394.0827 262.9547 C 394.1218 262.9547 394.474 262.9547 394.8653 262.9547 C 394.9044 262.9547 395.2566 262.9547 395.6479 262.9547 C 395.6871 262.9547 396.0393 262.9547 396.4306 262.9547 C 396.4697 262.9547 396.8219 262.9547 397.2133 262.9547 C 397.2524 262.9547 397.6046 262.9547 397.9959 262.9547 C 398.035 262.9547 398.3872 262.9547 398.7785 262.9547 C 398.8177 262.9547 399.1699 262.9547 399.5612 262.9547 C 399.6003 262.9547 399.9525 262.9547 400.3438 262.9547 C 400.383 262.9547 400.7352 262.9547 401.1265 262.9547 C 401.1656 262.9547 401.5178 262.9547 401.9091 262.9547 C 401.9483 262.9547 402.3004 262.9547 402.6918 262.9547 C 402.7309 262.9547 403.0831 262.9547 403.4744 262.9547 C 403.5135 262.9547 403.8657 262.9547 404.257 262.9547 C 404.2962 262.9547 404.9819 262.9547 405.0397 262.9547 C 405.118 262.9547 405.0451 261.899 405.118 261.899 C 405.1233 261.899 405.5093 261.899 405.9006 261.899 C 405.9397 261.899 406.2919 261.899 406.6833 261.899 C 406.7224 261.899 407.0746 261.899 407.4659 261.899 C 407.505 261.899 407.8572 261.899 408.2485 261.899 C 408.2877 261.899 408.3281 271.4211 408.4833 271.4211 C 408.4846 271.4211 408.8746 271.4211 409.266 271.4211 C 409.3051 271.4211 409.6573 271.4211 410.0486 271.4211 C 410.0878 271.4211 410.4399 271.4211 410.8313 271.4211 C 410.8704 271.4211 411.2226 271.4211 411.6139 271.4211 C 411.653 271.4211 412.0052 271.4211 412.3965 271.4211 C 412.4357 271.4211 412.7879 271.4211 413.1792 271.4211 C 413.2183 271.4211 413.5705 271.4211 413.9619 271.4211 C 414.001 271.4211 414.3532 271.4211 414.7445 271.4211 C 414.7836 271.4211 415.1358 271.4211 415.5271 271.4211 C 415.5663 271.4211 415.9185 271.4211 416.3098 271.4211 C 416.3489 271.4211 416.7011 271.4211 417.0924 271.4211 C 417.1315 271.4211 417.4837 271.4211 417.8751 271.4211 C 417.9142 271.4211 418.2664 271.4211 418.6577 271.4211 C 418.6968 271.4211 419.049 271.4211 419.4403 271.4211 C 419.4795 271.4211 419.8317 271.4211 420.223 271.4211 C 420.2621 271.4211 420.6143 271.4211 421.0056 271.4211 C 421.0448 271.4211 421.7861 271.4211 421.7883 271.4211 C 421.8665 271.4211 421.7885 299.3382 421.8665 299.3382 C 421.8668 299.3382 422.2579 299.3382 422.6492 299.3382 C 422.6883 299.3382 423.0405 299.3382 423.4318 299.3382 C 423.471 299.3382 423.8232 299.3382 424.2145 299.3382 C 424.2536 299.3382 424.6058 299.3382 424.9971 299.3382 C 425.0363 299.3382 425.076 318.9425 425.2319 318.9425 C 425.2326 318.9425 425.6232 318.9425 426.0146 318.9425 C 426.0537 318.9425 426.4059 318.9425 426.7972 318.9425 C 426.8363 318.9425 427.1885 318.9425 427.5799 318.9425 C 427.619 318.9425 427.9712 318.9425 428.3625 318.9425 C 428.4016 318.9425 428.7538 318.9425 429.1451 318.9425 C 429.1843 318.9425 429.5365 318.9425 429.9278 318.9425 C 429.9669 318.9425 430.3191 318.9425 430.7104 318.9425 C 430.7496 318.9425 431.1017 318.9425 431.4931 318.9425 C 431.5322 318.9425 431.8844 318.9425 432.2757 318.9425 C 432.3148 318.9425 432.667 318.9425 433.0583 318.9425 C 433.0975 318.9425 433.4497 318.9425 433.841 318.9425 C 433.8801 318.9425 434.2323 318.9425 434.6237 318.9425 C 434.6628 318.9425 435.015 318.9425 435.4063 318.9425 C 435.4454 318.9425 435.7976 318.9425 436.1889 318.9425 C 436.2281 318.9425 436.5803 318.9425 436.9716 318.9425 C 437.0107 318.9425 437.3629 318.9425 437.7542 318.9425 C 437.7934 318.9425 438.5321 318.9425 438.5369 318.9425 C 438.6151 318.9425 438.5374 331.7099 438.6151 331.7099 C 438.6156 331.7099 439.0065 331.7099 439.3978 331.7099 C 439.4369 331.7099 439.7891 331.7099 440.1804 331.7099 C 440.2196 331.7099 440.5717 331.7099 440.9631 331.7099 C 441.0022 331.7099 441.3544 331.7099 441.7457 331.7099 C 441.7849 331.7099 441.788 334.5904 441.9023 334.5904 C 441.9054 334.5904 442.2936 334.5904 442.6849 334.5904 C 442.724 334.5904 443.0762 334.5904 443.4675 334.5904 C 443.5067 334.5904 443.8589 334.5904 444.2502 334.5904 C 444.2893 334.5904 444.6415 334.5904 445.0328 334.5904 C 445.0719 334.5904 445.4241 334.5904 445.8155 334.5904 C 445.8546 334.5904 446.2068 334.5904 446.5981 334.5904 C 446.6372 334.5904 446.9894 334.5904 447.3808 334.5904 C 447.4199 334.5904 447.7721 334.5904 448.1634 334.5904 C 448.2025 334.5904 448.5547 334.5904 448.946 334.5904 C 448.9852 334.5904 449.3374 334.5904 449.7287 334.5904 C 449.7678 334.5904 450.12 334.5904 450.5113 334.5904 C 450.5505 334.5904 450.9026 334.5904 451.294 334.5904 C 451.3331 334.5904 451.6853 334.5904 452.0766 334.5904 C 452.1158 334.5904 452.4679 334.5904 452.8593 334.5904 C 452.8984 334.5904 453.2506 334.5904 453.6419 334.5904 C 453.681 334.5904 454.0332 334.5904 454.4246 334.5904 C 454.4637 334.5904 455.1965 334.5904 455.2072 334.5904 C 455.2855 334.5904 455.2082 340.325 455.2855 340.325 C 455.2865 340.325 455.6768 340.325 456.0681 340.325 C 456.1072 340.325 456.4594 340.325 456.8507 340.325 C 456.8899 340.325 457.2421 340.325 457.6334 340.325 C 457.6725 340.325 458.0247 340.325 458.416 340.325 C 458.4552 340.325 458.7671 340.5049 459.1204 340.5049 C 459.1584 340.5049 459.5117 340.5049 459.9031 340.5049 C 459.9422 340.5049 460.2944 340.5049 460.6857 340.5049 C 460.7248 340.5049 461.077 340.5049 461.4684 340.5049 C 461.5075 340.5049 461.8597 340.5049 462.251 340.5049 C 462.2901 340.5049 462.6423 340.5049 463.0336 340.5049 C 463.0728 340.5049 463.425 340.5049 463.8163 340.5049 C 463.8554 340.5049 464.2076 340.5049 464.5989 340.5049 C 464.6381 340.5049 464.9902 340.5049 465.3816 340.5049 C 465.4207 340.5049 465.7729 340.5049 466.1642 340.5049 C 466.2034 340.5049 466.5555 340.5049 466.9469 340.5049 C 466.986 340.5049 467.3382 340.5049 467.7295 340.5049 C 467.7686 340.5049 468.1208 340.5049 468.5121 340.5049 C 468.5513 340.5049 468.9035 340.5049 469.2948 340.5049 C 469.3339 340.5049 469.6861 340.5049 470.0774 340.5049 C 470.1166 340.5049 470.4688 340.5049 470.8601 340.5049 C 470.8992 340.5049 471.2514 340.5049 471.6427 340.5049 C 471.6819 340.5049 471.8006 354.0107 472.0341 354.0107 C 472.0354 354.0107 472.4254 354.0107 472.8167 354.0107 C 472.8558 354.0107 473.208 354.0107 473.5993 354.0107 C 473.6385 354.0107 473.9907 354.0107 474.382 354.0107 C 474.4211 354.0107 474.7733 354.0107 475.1646 354.0107 C 475.2038 354.0107 475.2452 348.9137 475.3994 348.9137 C 475.4018 348.9137 475.7907 348.9137 476.1821 348.9137 C 476.2212 348.9137 476.5734 348.9137 476.9647 348.9137 C 477.0038 348.9137 477.356 348.9137 477.7473 348.9137 C 477.7865 348.9137 478.1387 348.9137 478.53 348.9137 C 478.5691 348.9137 478.9213 348.9137 479.3127 348.9137 C 479.3518 348.9137 479.704 348.9137 480.0953 348.9137 C 480.1344 348.9137 480.4866 348.9137 480.8779 348.9137 C 480.9171 348.9137 481.2693 348.9137 481.6606 348.9137 C 481.6997 348.9137 482.0519 348.9137 482.4432 348.9137 C 482.4823 348.9137 482.8345 348.9137 483.2259 348.9137 C 483.265 348.9137 483.6172 348.9137 484.0085 348.9137 C 484.0476 348.9137 484.3998 348.9137 484.7911 348.9137 C 484.8303 348.9137 485.1825 348.9137 485.5738 348.9137 C 485.6129 348.9137 485.9651 348.9137 486.3564 348.9137 C 486.3956 348.9137 486.7478 348.9137 487.1391 348.9137 C 487.1782 348.9137 487.5304 348.9137 487.9217 348.9137 C 487.9609 348.9137 488.698 348.9137 488.7044 348.9137 C 488.7826 348.9137 488.705 339.2998 488.7826 339.2998 C 488.7833 339.2998 489.174 339.2998 489.5653 339.2998 C 489.6044 339.2998 489.9566 339.2998 490.3479 339.2998 C 490.3871 339.2998 490.7392 339.2998 491.1306 339.2998 C 491.1697 339.2998 491.5219 339.2998 491.9132 339.2998 C 491.9523 339.2998 491.9964 341.6898 492.148 341.6898 C 492.1529 341.6898 492.5393 341.6898 492.9307 341.6898 C 492.9698 341.6898 493.322 341.6898 493.7133 341.6898 C 493.7524 341.6898 494.1046 341.6898 494.4959 341.6898 C 494.5351 341.6898 494.8873 341.6898 495.2786 341.6898 C 495.3177 341.6898 495.6699 341.6898 496.0612 341.6898 C 496.1004 341.6898 496.4525 341.6898 496.8439 341.6898 C 496.883 341.6898 497.2352 341.6898 497.6265 341.6898 C 497.6656 341.6898 498.0178 341.6898 498.4091 341.6898 C 498.4483 341.6898 498.8005 341.6898 499.1918 341.6898 C 499.2309 341.6898 499.5831 341.6898 499.9745 341.6898 C 500.0136 341.6898 500.3658 341.6898 500.7571 341.6898 C 500.7962 341.6898 501.1484 341.6898 501.5397 341.6898 C 501.5789 341.6898 501.9311 341.6898 502.3224 341.6898 C 502.3615 341.6898 502.7137 341.6898 503.105 341.6898 C 503.1442 341.6898 503.4964 341.6898 503.8877 341.6898 C 503.9268 341.6898 504.279 341.6898 504.6703 341.6898 C 504.7094 341.6898 505.0557 341.1759 505.453 341.1759 C 505.4862 341.1759 505.8443 341.1759 506.2356 341.1759 C 506.2747 341.1759 506.6269 341.1759 507.0182 341.1759 C 507.0574 341.1759 507.4096 341.1759 507.8009 341.1759 C 507.84 341.1759 508.1922 341.1759 508.5835 341.1759 C 508.6227 341.1759 508.6642 346.2689 508.8183 346.2689 C 508.8207 346.2689 509.2097 346.2689 509.601 346.2689 C 509.6401 346.2689 509.9923 346.2689 510.3836 346.2689 C 510.4227 346.2689 510.7749 346.2689 511.1663 346.2689 C 511.2054 346.2689 511.5576 346.2689 511.9489 346.2689 C 511.988 346.2689 512.3402 346.2689 512.7316 346.2689 C 512.7707 346.2689 513.1229 346.2689 513.5142 346.2689 C 513.5533 346.2689 513.9055 346.2689 514.2968 346.2689 C 514.336 346.2689 514.6881 346.2689 515.0795 346.2689 C 515.1186 346.2689 515.4708 346.2689 515.8621 346.2689 C 515.9012 346.2689 516.2534 346.2689 516.6448 346.2689 C 516.6839 346.2689 517.0361 346.2689 517.4274 346.2689 C 517.4666 346.2689 517.8188 346.2689 518.2101 346.2689 C 518.2492 346.2689 518.6014 346.2689 518.9927 346.2689 C 519.0319 346.2689 519.384 346.2689 519.7753 346.2689 C 519.8145 346.2689 520.1667 346.2689 520.558 346.2689 C 520.5971 346.2689 520.9493 346.2689 521.3406 346.2689 C 521.3798 346.2689 522.0882 346.2689 522.1233 346.2689 C 522.2015 346.2689 522.1267 348.0103 522.2015 348.0103 C 522.2049 348.0103 522.5929 348.0103 522.9842 348.0103 C 523.0233 348.0103 523.3755 348.0103 523.7668 348.0103 C 523.806 348.0103 524.1582 348.0103 524.5495 348.0103 C 524.5886 348.0103 524.9408 348.0103 525.3322 348.0103 C 525.3713 348.0103 525.7234 348.0106 526.1147 348.0106 C 526.1539 348.0106 526.5061 348.0106 526.8974 348.0106 C 526.9366 348.0106 527.2887 348.0106 527.6801 348.0106 C 527.7192 348.0106 528.0714 348.0106 528.4627 348.0106 C 528.5018 348.0106 528.854 348.0106 529.2454 348.0106 C 529.2845 348.0106 529.6367 348.0106 530.028 348.0106 C 530.0671 348.0106 530.4193 348.0106 530.8106 348.0106 C 530.8498 348.0106 531.2019 348.0106 531.5933 348.0106 C 531.6324 348.0106 531.9846 348.0106 532.3759 348.0106 C 532.415 348.0106 532.7672 348.0106 533.1586 348.0106 C 533.1977 348.0106 533.5499 348.0106 533.9412 348.0106 C 533.9803 348.0106 534.3326 348.0106 534.7239 348.0106 C 534.763 348.0106 535.1152 348.0106 535.5065 348.0106 C 535.5457 348.0106 535.8978 348.0106 536.2891 348.0106 C 536.3283 348.0106 536.6805 348.0106 537.0718 348.0106 C 537.1109 348.0106 537.4631 348.0106 537.8544 348.0106 C 537.8936 348.0106 538.2458 348.0106 538.6371 348.0106 C 538.6762 348.0106 538.7576 352.8066 538.9501 352.8066 C 538.9533 352.8066 539.3415 352.8066 539.7328 352.8066 C 539.7719 352.8066 540.1241 352.8066 540.5154 352.8066 C 540.5546 352.8066 540.9068 352.8066 541.2981 352.8066 C 541.3372 352.8066 541.6894 352.8066 542.0807 352.8066 C 542.1198 352.8066 542.1591 254.2885 542.3155 254.2885 C 542.3156 254.2885 542.7068 254.2885 543.0981 254.2885 C 543.1373 254.2885 543.4895 254.2885 543.8808 254.2885 C 543.9199 254.2885 544.2721 254.2885 544.6635 254.2885 C 544.7026 254.2885 545.0548 254.2885 545.4461 254.2885 C 545.4852 254.2885 545.8374 254.2885 546.2287 254.2885 C 546.2679 254.2885 546.62 254.2885 547.0114 254.2885 C 547.0505 254.2885 547.4027 254.2885 547.794 254.2885 C 547.8331 254.2885 548.1853 254.2885 548.5767 254.2885 C 548.6158 254.2885 548.968 254.2885 549.3593 254.2885 C 549.3984 254.2885 549.7506 254.2885 550.142 254.2885 C 550.1811 254.2885 550.5333 254.2885 550.9246 254.2885 C 550.9637 254.2885 551.3159 254.2885 551.7072 254.2885 C 551.7464 254.2885 552.0985 254.2885 552.4899 254.2885 C 552.529 254.2885 552.8812 254.2885 553.2725 254.2885 C 553.3116 254.2885 553.6638 254.2885 554.0552 254.2885 C 554.0943 254.2885 554.4465 254.2885 554.8378 254.2885 C 554.877 254.2885 555.1911 222.7647 555.6205 222.7647 C 555.6215 222.7647 556.0118 222.7647 556.4031 222.7647 C 556.4422 222.7647 556.7944 222.7647 557.1857 222.7647 C 557.2249 222.7647 557.5771 222.7647 557.9684 222.7647 C 558.0075 222.7647 558.3597 222.7647 558.751 222.7647 C 558.7902 222.7647 558.8309 215.2937 558.9858 215.2937 C 558.9875 215.2937 559.3772 215.2937 559.7685 215.2937 C 559.8076 215.2937 560.1598 215.2937 560.5511 215.2937 C 560.5903 215.2937 560.9424 215.2937 561.3337 215.2937 C 561.3729 215.2937 561.7251 215.2937 562.1164 215.2937 C 562.1555 215.2937 562.5077 215.2937 562.899 215.2937 C 562.9382 215.2937 563.2904 215.2937 563.6817 215.2937 C 563.7208 215.2937 564.073 215.2937 564.4644 215.2937 C 564.5035 215.2937 564.8557 215.2937 565.247 215.2937 C 565.2861 215.2937 565.6383 215.2937 566.0296 215.2937 C 566.0688 215.2937 566.4209 215.2937 566.8123 215.2937 C 566.8514 215.2937 567.2036 215.2937 567.5949 215.2937 C 567.634 215.2937 567.9862 215.2937 568.3776 215.2937 C 568.4167 215.2937 568.7689 215.2937 569.1602 215.2937 C 569.1993 215.2937 569.5515 215.2937 569.9429 215.2937 C 569.982 215.2937 570.3342 215.2937 570.7255 215.2937 C 570.7646 215.2937 571.1168 215.2937 571.5081 215.2937 C 571.5473 215.2937 572.2895 215.2937 572.2908 215.2937 C 572.369 215.2937 572.2909 166.5422 572.369 166.5422 C 572.3691 166.5422 572.7603 166.5422 573.1517 166.5422 C 573.1908 166.5422 573.543 166.5422 573.9343 166.5422 C 573.9734 166.5422 574.3257 166.5422 574.717 166.5422 C 574.7561 166.5422 575.1083 166.5422 575.4996 166.5422 C 575.5388 166.5422 575.5782 209.7848 575.7344 209.7848 C 575.7347 209.7848 576.1258 209.7848 576.5171 209.7848 C 576.5562 209.7848 576.9084 209.7848 577.2997 209.7848 C 577.3388 209.7848 577.691 209.7848 578.0823 209.7848 C 578.1215 209.7848 578.4737 209.7848 578.865 209.7848 C 578.9041 209.7848 579.2563 209.7848 579.6476 209.7848 C 579.6868 209.7848 580.039 209.7848 580.4303 209.7848 C 580.4694 209.7848 580.8216 209.7848 581.213 209.7848 C 581.2521 209.7848 581.6042 209.7848 581.9955 209.7848 C 582.0347 209.7848 582.3869 209.7848 582.7782 209.7848 C 582.8174 209.7848 583.1695 209.7848 583.5609 209.7848 C 583.6 209.7848 583.9522 209.7848 584.3435 209.7848 C 584.3826 209.7848 584.7348 209.7848 585.1262 209.7848 C 585.1653 209.7848 585.5175 209.7848 585.9088 209.7848 C 585.9479 209.7848 586.3001 209.7848 586.6915 209.7848 C 586.7306 209.7848 587.0828 209.7848 587.4741 209.7848 C 587.5132 209.7848 587.8654 209.7848 588.2567 209.7848 C 588.2959 209.7848 589.038 209.7848 589.0394 209.7848 C 589.1176 209.7848 589.0395 163.7092 589.1176 163.7092 C 589.1177 163.7092 589.5089 163.7092 589.9003 163.7092 C 589.9394 163.7092 590.2916 163.7092 590.6829 163.7092 C 590.722 163.7092 591.0742 163.7092 591.4656 163.7092 C 591.5047 163.7092 591.8569 163.7092 592.2482 163.7092 C 592.2874 163.7092 592.3279 172.3308 592.483 172.3308 C 592.4844 172.3308 592.8743 172.3308 593.2656 172.3308 C 593.3048 172.3308 593.657 172.3308 594.0483 172.3308 C 594.0874 172.3308 594.4396 172.3308 594.8309 172.3308 C 594.8701 172.3308 595.2223 172.3308 595.6136 172.3308 C 595.6527 172.3308 596.0049 172.3308 596.3962 172.3308 C 596.4354 172.3308 596.7876 172.3308 597.1789 172.3308 C 597.218 172.3308 597.5702 172.3308 597.9615 172.3308 C 598.0006 172.3308 598.3528 172.3308 598.7441 172.3308 C 598.7833 172.3308 599.1355 172.3308 599.5268 172.3308 C 599.5659 172.3308 599.9181 172.3308 600.3094 172.3308 C 600.3486 172.3308 600.7008 172.3308 601.0921 172.3308 C 601.1312 172.3308 601.4834 172.3308 601.8748 172.3308 C 601.9139 172.3308 602.2661 172.3308 602.6574 172.3308 C 602.6965 172.3308 603.0487 172.3308 603.44 172.3308 C 603.4792 172.3308 603.8313 172.3308 604.2227 172.3308 C 604.2618 172.3308 604.614 172.3308 605.0053 172.3308 C 605.0444 172.3308 605.7871 172.3308 605.788 172.3308 C 605.8662 172.3308 605.788 243.5297 605.8662 243.5297 C 605.8663 243.5297 606.2575 243.5297 606.6489 243.5297 C 606.688 243.5297 607.0402 243.5297 607.4315 243.5297 C 607.4706 243.5297 607.8228 243.5297 608.2142 243.5297 C 608.2533 243.5297 608.6055 243.5297 608.9968 243.5297 C 609.0359 243.5297 609.0363 269.8556 609.1533 269.8556 C 609.1537 269.8556 609.5446 269.8556 609.936 269.8556 C 609.9751 269.8556 610.3273 269.8556 610.7186 269.8556 C 610.7578 269.8556 611.11 269.8556 611.5013 269.8556 C 611.5404 269.8556 611.8926 269.8556 612.2839 269.8556 C 612.3231 269.8556 612.6752 269.8556 613.0665 269.8556 C 613.1057 269.8556 613.4579 269.8556 613.8492 269.8556 C 613.8883 269.8556 614.2405 269.8556 614.6318 269.8556 C 614.671 269.8556 615.0232 269.8556 615.4145 269.8556 C 615.4536 269.8556 615.8058 269.8556 616.1971 269.8556 C 616.2363 269.8556 616.5885 269.8556 616.9798 269.8556 C 617.0189 269.8556 617.3711 269.8556 617.7624 269.8556 C 617.8015 269.8556 618.1537 269.8556 618.545 269.8556 C 618.5842 269.8556 618.9364 269.8556 619.3277 269.8556 C 619.3668 269.8556 619.719 269.8556 620.1104 269.8556 C 620.1495 269.8556 620.5017 269.8556 620.893 269.8556 C 620.9321 269.8556 621.2843 269.8556 621.6757 269.8556 C 621.7148 269.8556 622.4559 269.8556 622.4583 269.8556 C 622.5366 269.8556 622.4586 295.514 622.5366 295.514 C 622.5368 295.514 622.9279 295.514 623.3192 295.514 C 623.3583 295.514 623.7105 295.514 624.1018 295.514 C 624.141 295.514 624.4931 295.514 624.8845 295.514 C 624.9236 295.514 625.2758 295.514 625.6671 295.514 C 625.7062 295.514 625.7477 300.7899 625.9019 300.7899 C 625.9042 300.7899 626.2932 300.7899 626.6846 300.7899 C 626.7237 300.7899 627.0759 300.7899 627.4672 300.7899 C 627.5063 300.7899 627.8586 300.7899 628.2499 300.7899 C 628.289 300.7899 628.6412 300.7899 629.0325 300.7899 C 629.0716 300.7899 629.4238 300.7899 629.8151 300.7899 C 629.8543 300.7899 630.2065 300.7899 630.5978 300.7899 C 630.6369 300.7899 630.9891 300.7899 631.3804 300.7899 C 631.4196 300.7899 631.7718 300.7899 632.1631 300.7899 C 632.2022 300.7899 632.5544 300.7899 632.9457 300.7899 C 632.9849 300.7899 633.337 300.7899 633.7283 300.7899 C 633.7675 300.7899 634.1197 300.7899 634.511 300.7899 C 634.5501 300.7899 634.9023 300.7899 635.2936 300.7899 C 635.3328 300.7899 635.685 300.7899 636.0763 300.7899 C 636.1154 300.7899 636.4676 300.7899 636.8589 300.7899 C 636.8981 300.7899 637.2503 300.7899 637.6416 300.7899 C 637.6807 300.7899 638.0329 300.7899 638.4243 300.7899 C 638.4634 300.7899 639.2021 300.7899 639.2068 300.7899 C 639.2852 300.7899 639.2074 287.8823 639.2852 287.8823 C 639.2856 287.8823 639.6765 287.8823 640.0678 287.8823 C 640.1069 287.8823 640.4591 287.8823 640.8504 287.8823 C 640.8896 287.8823 641.2417 287.8823 641.6331 287.8823 C 641.6722 287.8823 642.0244 287.8823 642.4157 287.8823 C 642.4548 287.8823 642.4948 303.7543 642.6505 303.7543 C 642.6513 303.7543 643.0418 303.7543 643.4332 303.7543 C 643.4723 303.7543 643.8245 303.7543 644.2158 303.7543 C 644.2549 303.7543 644.6071 303.7543 644.9984 303.7543 C 645.0376 303.7543 645.3897 303.7543 645.7811 303.7543 C 645.8202 303.7543 646.1724 303.7543 646.5637 303.7543 C 646.6028 303.7543 646.955 303.7543 647.3464 303.7543 C 647.3855 303.7543 647.7377 303.7543 648.129 303.7543 C 648.1682 303.7543 648.5204 303.7543 648.9117 303.7543 C 648.9508 303.7543 649.303 303.7543 649.6943 303.7543 C 649.7335 303.7543 650.0856 303.7543 650.4769 303.7543 C 650.5161 303.7543 650.8683 303.7543 651.2596 303.7543 C 651.2987 303.7543 651.6509 303.7543 652.0422 303.7543 C 652.0814 303.7543 652.4336 303.7543 652.8249 303.7543 C 652.864 303.7543 653.2162 303.7543 653.6075 303.7543 C 653.6467 303.7543 653.9989 303.7543 654.3902 303.7543 C 654.4293 303.7543 654.7815 303.7543 655.1728 303.7543 C 655.2119 303.7543 655.9537 303.7543 655.9554 303.7543 C 656.0338 303.7543 655.9556 338.9405 656.0338 338.9405 C 656.0339 338.9405 656.425 338.9405 656.8163 338.9405 C 656.8555 338.9405 657.2077 338.9405 657.599 338.9405 C 657.6382 338.9405 657.9903 338.9405 658.3817 338.9405 C 658.4208 338.9405 658.773 338.9405 659.1643 338.9405 C 659.2034 338.9405 659.2041 352.2027 659.3208 352.2027 C 659.3215 352.2027 659.7121 352.2027 660.1035 352.2027 C 660.1426 352.2027 660.4948 352.2027 660.8861 352.2027 C 660.9252 352.2027 661.2774 352.2027 661.6688 352.2027 C 661.7079 352.2027 662.0601 352.2027 662.4514 352.2027 C 662.4905 352.2027 662.8427 352.2027 663.2341 352.2027 C 663.2732 352.2027 663.6254 352.2027 664.0167 352.2027 C 664.0558 352.2027 664.408 352.2027 664.7993 352.2027 C 664.8385 352.2027 665.1906 352.2027 665.582 352.2027 C 665.6211 352.2027 665.9733 352.2027 666.3646 352.2027 C 666.4037 352.2027 666.756 352.2027 667.1473 352.2027 C 667.1864 352.2027 667.5386 352.2027 667.9299 352.2027 C 667.9691 352.2027 668.3213 352.2027 668.7126 352.2027 C 668.7517 352.2027 669.1039 352.2027 669.4952 352.2027 C 669.5343 352.2027 669.8865 352.2027 670.2778 352.2027 C 670.317 352.2027 670.6692 352.2027 671.0605 352.2027 C 671.0996 352.2027 671.4518 352.2027 671.8431 352.2027 C 671.8823 352.2027 672.5714 352.2027 672.6258 352.2027 C 672.704 352.2027 672.6309 353.3258 672.704 353.3258 C 672.7091 353.3258 673.0954 353.3258 673.4867 353.3258 C 673.5258 353.3258 673.878 353.3258 674.2693 353.3258 C 674.3085 353.3258 674.6607 353.3258 675.052 353.3258 C 675.0911 353.3258 675.4433 353.3258 675.8347 353.3258 C 675.8738 353.3258 675.9137 368.5678 676.0694 368.5678 C 676.0702 368.5678 676.4607 368.5678 676.8521 368.5678 C 676.8912 368.5678 677.2434 368.5678 677.6347 368.5678 C 677.6738 368.5678 678.026 368.5678 678.4174 368.5678 C 678.4565 368.5678 678.8087 368.5678 679.2 368.5678 C 679.2391 368.5678 679.5913 368.5678 679.9827 368.5678 C 680.0218 368.5678 680.374 368.5678 680.7653 368.5678 C 680.8044 368.5678 681.1566 368.5678 681.5479 368.5678 C 681.5871 368.5678 681.9392 368.5678 682.3306 368.5678 C 682.3697 368.5678 682.7219 368.5678 683.1132 368.5678 C 683.1523 368.5678 683.5045 368.5678 683.8959 368.5678 C 683.935 368.5678 684.2872 368.5678 684.6785 368.5678 C 684.7177 368.5678 685.0698 368.5678 685.4611 368.5678 C 685.5003 368.5678 685.8524 368.5678 686.2438 368.5678 C 686.2829 368.5678 686.6351 368.5678 687.0264 368.5678 C 687.0656 368.5678 687.4178 368.5678 687.8091 368.5678 C 687.8482 368.5678 688.2004 368.5678 688.5917 368.5678 C 688.6309 368.5678 689.3709 368.5678 689.3744 368.5678 C 689.4526 368.5678 689.3747 385.8845 689.4526 385.8845 C 689.453 385.8845 689.844 385.8845 690.2353 385.8845 C 690.2744 385.8845 690.6266 385.8845 691.0179 385.8845 C 691.0571 385.8845 691.4093 385.8845 691.8006 385.8845 C 691.8397 385.8845 692.1919 385.8845 692.5832 385.8845 C 692.6223 385.8845 692.6616 298.4584 692.818 298.4584 C 692.8181 298.4584 693.2093 298.4584 693.6006 298.4584 C 693.6398 298.4584 693.992 298.4584 694.3833 298.4584 C 694.4224 298.4584 694.7746 298.4584 695.166 298.4584 C 695.2051 298.4584 695.5573 298.4584 695.9486 298.4584 C 695.9877 298.4584 696.3399 298.4584 696.7312 298.4584 C 696.7704 298.4584 697.1225 298.4584 697.5139 298.4584 C 697.553 298.4584 697.9052 298.4584 698.2965 298.4584 C 698.3356 298.4584 698.6878 298.4584 699.0792 298.4584 C 699.1183 298.4584 699.4705 298.4584 699.8618 298.4584 C 699.9009 298.4584 700.2531 298.4584 700.6445 298.4584 C 700.6836 298.4584 701.0358 298.4584 701.4271 298.4584 C 701.4662 298.4584 701.8184 298.4584 702.2097 298.4584 C 702.2489 298.4584 702.601 298.4584 702.9924 298.4584 C 703.0315 298.4584 703.3837 298.4584 703.775 298.4584 C 703.8141 298.4584 704.1664 298.4584 704.5577 298.4584 C 704.5968 298.4584 704.949 298.4584 705.3403 298.4584 C 705.3795 298.4584 706.1195 298.4584 706.123 298.4584 C 706.2012 298.4584 706.1233 280.8211 706.2012 280.8211 C 706.2016 280.8211 706.5926 280.8211 706.9839 280.8211 C 707.023 280.8211 707.3752 280.8211 707.7665 280.8211 C 707.8057 280.8211 708.1578 280.8211 708.5491 280.8211 C 708.5883 280.8211 708.9405 280.8211 709.3318 280.8211 C 709.3709 280.8211 709.3714 301.2006 709.4883 301.2006 C 709.4888 301.2006 709.8797 301.2006 710.271 301.2006 C 710.3101 301.2006 710.6623 301.2006 711.0536 301.2006 C 711.0927 301.2006 711.4449 301.2006 711.8362 301.2006 C 711.8754 301.2006 712.2276 301.2006 712.6189 301.2006 C 712.658 301.2006 713.0102 301.2006 713.4016 301.2006 C 713.4407 301.2006 713.7929 301.2006 714.1842 301.2006 C 714.2233 301.2006 714.5755 301.2006 714.9669 301.2006 C 715.006 301.2006 715.3582 301.2006 715.7495 301.2006 C 715.7886 301.2006 716.1408 301.2006 716.5321 301.2006 C 716.5713 301.2006 716.9234 301.2006 717.3148 301.2006 C 717.3539 301.2006 717.7061 301.2006 718.0974 301.2006 C 718.1365 301.2006 718.4887 301.2006 718.8801 301.2006 C 718.9192 301.2006 719.2714 301.2006 719.6627 301.2006 C 719.7018 301.2006 720.054 301.2006 720.4454 301.2006 C 720.4845 301.2006 720.8367 301.2006 721.228 301.2006 C 721.2671 301.2006 721.6193 301.2006 722.0106 301.2006 C 722.0498 301.2006 722.7913 301.2006 722.7933 301.2006 C 722.8715 301.2006 722.7934 270.9377 722.8715 270.9377 C 722.8717 270.9377 723.2628 270.9377 723.6542 270.9377 C 723.6933 270.9377 724.0455 270.9377 724.4368 270.9377 C 724.476 270.9377 724.8282 270.9377 725.2195 270.9377 C 725.2586 270.9377 725.6108 270.9377 726.0021 270.9377 C 726.0413 270.9377 726.0812 287.3507 726.2369 287.3507 C 726.2377 287.3507 726.6283 287.3507 727.0196 287.3507 C 727.0587 287.3507 727.4109 287.3507 727.8022 287.3507 C 727.8413 287.3507 728.1935 287.3507 728.5848 287.3507 C 728.624 287.3507 728.9762 287.3507 729.3675 287.3507 C 729.4066 287.3507 729.7588 287.3507 730.1501 287.3507 C 730.1893 287.3507 730.5415 287.3507 730.9328 287.3507 C 730.9719 287.3507 731.3241 287.3507 731.7155 287.3507 C 731.7546 287.3507 732.1068 287.3507 732.498 287.3507 C 732.5372 287.3507 732.8894 287.3507 733.2807 287.3507 C 733.3199 287.3507 733.672 287.3507 734.0634 287.3507 C 734.1025 287.3507 734.4547 287.3507 734.846 287.3507 C 734.8851 287.3507 735.2373 287.3507 735.6287 287.3507 C 735.6678 287.3507 736.02 287.3507 736.4113 287.3507 C 736.4504 287.3507 736.8026 287.3507 737.194 287.3507 C 737.2331 287.3507 737.5853 287.3507 737.9766 287.3507 C 738.0157 287.3507 738.3679 287.3507 738.7592 287.3507 C 738.7983 287.3507 739.5404 287.3507 739.5419 287.3507 C 739.6201 287.3507 739.542 245.0363 739.6201 245.0363 C 739.6203 245.0363 740.0114 245.0363 740.4028 245.0363 C 740.4419 245.0363 740.7941 245.0363 741.1854 245.0363 C 741.2245 245.0363 741.5768 245.0363 741.9681 245.0363 C 742.0072 245.0363 742.3594 245.0363 742.7507 245.0363 C 742.7899 245.0363 742.8294 273.6852 742.9855 273.6852 C 742.986 273.6852 743.3768 273.6852 743.7681 273.6852 C 743.8073 273.6852 744.1595 273.6852 744.5508 273.6852 C 744.5899 273.6852 744.9421 273.6852 745.3334 273.6852 C 745.3726 273.6852 745.7248 273.6852 746.1161 273.6852 C 746.1552 273.6852 746.5074 273.6852 746.8987 273.6852 C 746.9379 273.6852 747.2901 273.6852 747.6814 273.6852 C 747.7205 273.6852 748.0727 273.6852 748.464 273.6852 C 748.5031 273.6852 748.8553 273.6852 749.2466 273.6852 C 749.2858 273.6852 749.638 273.6852 750.0293 273.6852 C 750.0684 273.6852 750.4206 273.6852 750.812 273.6852 C 750.8511 273.6852 751.2033 273.6852 751.5946 273.6852 C 751.6337 273.6852 751.9859 273.6852 752.3773 273.6852 C 752.4164 273.6852 752.7686 273.6852 753.1599 273.6852 C 753.199 273.6852 753.5512 273.6852 753.9425 273.6852 C 753.9817 273.6852 754.3338 273.6852 754.7252 273.6852 C 754.7643 273.6852 755.1165 273.6852 755.5078 273.6852 C 755.5469 273.6852 756.2897 273.6852 756.2905 273.6852 C 756.3687 273.6852 756.2905 352.8535 756.3687 352.8535 C 756.3688 352.8535 756.76 352.8535 757.1514 352.8535 C 757.1905 352.8535 757.5427 352.8535 757.934 352.8535 C 757.9731 352.8535 758.3253 352.8535 758.7167 352.8535 C 758.7558 352.8535 759.108 352.8535 759.4993 352.8535 C 759.5385 352.8535 759.5484 352.0262 759.6558 352.0262 C 759.6658 352.0262 760.0471 352.0262 760.4385 352.0262 C 760.4776 352.0262 760.8298 352.0262 761.2211 352.0262 C 761.2603 352.0262 761.6125 352.0262 762.0038 352.0262 C 762.0429 352.0262 762.3951 352.0262 762.7864 352.0262 C 762.8256 352.0262 763.1777 352.0262 763.569 352.0262 C 763.6082 352.0262 763.9604 352.0262 764.3517 352.0262 C 764.3908 352.0262 764.743 352.0262 765.1343 352.0262 C 765.1735 352.0262 765.5257 352.0262 765.917 352.0262 C 765.9561 352.0262 766.3083 352.0262 766.6996 352.0262 C 766.7388 352.0262 767.091 352.0262 767.4823 352.0262 C 767.5214 352.0262 767.8736 352.0262 768.2649 352.0262 C 768.304 352.0262 768.6562 352.0262 769.0475 352.0262 C 769.0867 352.0262 769.4389 352.0262 769.8302 352.0262 C 769.8693 352.0262 770.2215 352.0262 770.6129 352.0262 C 770.652 352.0262 771.0042 352.0262 771.3955 352.0262 C 771.4346 352.0262 771.7868 352.0262 772.1782 352.0262 C 772.2173 352.0262 772.9429 352.0262 772.9608 352.0262 C 773.0391 352.0262 772.9625 348.5886 773.0391 348.5886 C 773.0408 348.5886 773.4304 348.5886 773.8217 348.5886 C 773.8608 348.5886 774.213 348.5886 774.6043 348.5886 C 774.6435 348.5886 774.9956 348.5886 775.387 348.5886 C 775.4261 348.5886 775.7783 348.5886 776.1696 348.5886 C 776.2087 348.5886 776.4784 348.2468 776.7957 348.2468 C 776.8306 348.2468 777.187 348.2468 777.5784 348.2468 C 777.6175 348.2468 777.9697 348.2468 778.361 348.2468 C 778.4001 348.2468 778.7523 348.2468 779.1437 348.2468 C 779.1828 348.2468 779.535 348.2468 779.9263 348.2468 C 779.9655 348.2468 780.3177 348.2468 780.709 348.2468 C 780.7481 348.2468 781.1003 348.2468 781.4916 348.2468 C 781.5307 348.2468 781.8829 348.2468 782.2742 348.2468 C 782.3134 348.2468 782.6656 348.2468 783.0569 348.2468 C 783.096 348.2468 783.4482 348.2468 783.8395 348.2468 C 783.8787 348.2468 784.2309 348.2468 784.6222 348.2468 C 784.6613 348.2468 785.0135 348.2468 785.4048 348.2468 C 785.444 348.2468 785.7962 348.2468 786.1875 348.2468 C 786.2266 348.2468 786.5788 348.2468 786.9701 348.2468 C 787.0092 348.2468 787.3614 348.2468 787.7527 348.2468 C 787.7919 348.2468 788.1441 348.2468 788.5354 348.2468 C 788.5745 348.2468 788.9267 348.2468 789.3181 348.2468 C 789.3572 348.2468 789.5191 352.1324 789.7877 352.1324 C 789.793 352.1324 790.179 352.1324 790.5703 352.1324 C 790.6094 352.1324 790.9616 352.1324 791.3529 352.1324 C 791.3921 352.1324 791.7442 352.1324 792.1356 352.1324 C 792.1747 352.1324 792.5269 352.1324 792.9182 352.1324 C 792.9573 352.1324 792.9988 346.8098 793.153 346.8098 C 793.1553 346.8098 793.5443 346.8098 793.9357 346.8098 C 793.9748 346.8098 794.327 346.8098 794.7183 346.8098 C 794.7574 346.8098 795.1096 346.8098 795.5009 346.8098 C 795.5401 346.8098 795.8922 346.8098 796.2836 346.8098 C 796.3227 346.8098 796.6749 346.8098 797.0662 346.8098 C 797.1053 346.8098 797.4576 346.8098 797.8489 346.8098 C 797.888 346.8098 798.2402 346.8098 798.6315 346.8098 C 798.6707 346.8098 799.0229 346.8098 799.4142 346.8098 C 799.4533 346.8098 799.8055 346.8098 800.1968 346.8098 C 800.2359 346.8098 800.5881 346.8098 800.9794 346.8098 C 801.0186 346.8098 801.3708 346.8098 801.7621 346.8098 C 801.8012 346.8098 802.1534 346.8098 802.5447 346.8098 C 802.5839 346.8098 802.9361 346.8098 803.3274 346.8098 C 803.3665 346.8098 803.7187 346.8098 804.11 346.8098 C 804.1492 346.8098 804.5014 346.8098 804.8927 346.8098 C 804.9318 346.8098 805.284 346.8098 805.6753 346.8098 C 805.7144 346.8098 806.4436 346.8098 806.4579 346.8098 C 806.5363 346.8098 806.4594 342.5358 806.5363 342.5358 C 806.5377 342.5358 806.9276 342.5358 807.3188 342.5358 C 807.358 342.5358 807.7102 342.5358 808.1015 342.5358 C 808.1406 342.5358 808.4928 342.5358 808.8842 342.5358 C 808.9233 342.5358 809.2755 342.5358 809.6668 342.5358 C 809.7059 342.5358 809.7061 302.3094 809.8233 302.3094 C 809.8235 302.3094 810.2146 302.3094 810.606 302.3094 C 810.6451 302.3094 810.9973 302.3094 811.3886 302.3094 C 811.4277 302.3094 811.7799 302.3094 812.1713 302.3094 C 812.2104 302.3094 812.5626 302.3094 812.9539 302.3094 C 812.993 302.3094 813.3452 302.3094 813.7366 302.3094 C 813.7757 302.3094 814.1279 302.3094 814.5192 302.3094 C 814.5583 302.3094 814.9105 302.3094 815.3018 302.3094 C 815.341 302.3094 815.6931 302.3094 816.0845 302.3094 C 816.1236 302.3094 816.4758 302.3094 816.8671 302.3094 C 816.9063 302.3094 817.2585 302.3094 817.6498 302.3094 C 817.6889 302.3094 818.0411 302.3094 818.4324 302.3094 C 818.4716 302.3094 818.8238 302.3094 819.2151 302.3094 C 819.2542 302.3094 819.6064 302.3094 819.9977 302.3094 C 820.0368 302.3094 820.389 302.3094 820.7803 302.3094 C 820.8195 302.3094 821.1717 302.3094 821.563 302.3094 C 821.6021 302.3094 821.9543 302.3094 822.3456 302.3094 C 822.3848 302.3094 823.1244 302.3094 823.1283 302.3094 C 823.2065 302.3094 823.1287 286.5646 823.2065 286.5646 C 823.2069 286.5646 823.5979 286.5646 823.9892 286.5646 C 824.0283 286.5646 824.3805 286.5646 824.7719 286.5646 C 824.811 286.5646 825.1632 286.5646 825.5545 286.5646 C 825.5936 286.5646 825.9458 286.5646 826.3371 286.5646 C 826.3763 286.5646 826.4155 205.5957 826.5719 205.5957 C 826.5721 205.5957 826.9632 205.5957 827.3546 205.5957 C 827.3937 205.5957 827.7459 205.5957 828.1372 205.5957 C 828.1763 205.5957 828.5285 205.5957 828.9199 205.5957 C 828.959 205.5957 829.3112 205.5957 829.7025 205.5957 C 829.7416 205.5957 830.0938 205.5957 830.4852 205.5957 C 830.5243 205.5957 830.8765 205.5957 831.2678 205.5957 C 831.3069 205.5957 831.6591 205.5957 832.0504 205.5957 C 832.0896 205.5957 832.4417 205.5957 832.8331 205.5957 C 832.8722 205.5957 833.2244 205.5957 833.6157 205.5957 C 833.6548 205.5957 834.007 205.5957 834.3984 205.5957 C 834.4375 205.5957 834.7897 205.5957 835.181 205.5957 C 835.2202 205.5957 835.5723 205.5957 835.9636 205.5957 C 836.0028 205.5957 836.3549 205.5957 836.7463 205.5957 C 836.7854 205.5957 837.1376 205.5957 837.5289 205.5957 C 837.5681 205.5957 837.9203 205.5957 838.3116 205.5957 C 838.3507 205.5957 838.7029 205.5957 839.0942 205.5957 C 839.1334 205.5957 839.8756 205.5957 839.8769 205.5957 C 839.9551 205.5957 839.877 158.3872 839.9551 158.3872 C 839.9553 158.3872 840.3465 158.3872 840.7378 158.3872 C 840.7769 158.3872 841.1291 158.3872 841.5204 158.3872 C 841.5596 158.3872 841.9117 158.3872 842.303 158.3872 C 842.3422 158.3872 842.6944 158.3872 843.0857 158.3872 C 843.1248 158.3872 843.1642 206.1345 843.3205 206.1345 C 843.3208 206.1345 843.7118 206.1345 844.1031 206.1345 C 844.1423 206.1345 844.4945 206.1345 844.8858 206.1345 C 844.9249 206.1345 845.2771 206.1345 845.6685 206.1345 C 845.7076 206.1345 846.0598 206.1345 846.4511 206.1345 C 846.4902 206.1345 846.8424 206.1345 847.2337 206.1345 C 847.2729 206.1345 847.625 206.1345 848.0164 206.1345 C 848.0555 206.1345 848.4077 206.1345 848.799 206.1345 C 848.8381 206.1345 849.1903 206.1345 849.5817 206.1345 C 849.6208 206.1345 849.973 206.1345 850.3643 206.1345 C 850.4034 206.1345 850.7556 206.1345 851.147 206.1345 C 851.1861 206.1345 851.5383 206.1345 851.9296 206.1345 C 851.9687 206.1345 852.3209 206.1345 852.7122 206.1345 C 852.7514 206.1345 853.1035 206.1345 853.4949 206.1345 C 853.534 206.1345 853.8862 206.1345 854.2775 206.1345 C 854.3167 206.1345 854.6689 206.1345 855.0602 206.1345 C 855.0993 206.1345 855.4515 206.1345 855.8428 206.1345 C 855.882 206.1345 856.624 206.1345 856.6255 206.1345 C 856.7037 206.1345 856.6256 164.5653 856.7037 164.5653 C 856.7039 164.5653 857.0951 164.5653 857.4864 164.5653 C 857.5255 164.5653 857.8777 164.5653 858.269 164.5653 C 858.3082 164.5653 858.6603 164.5653 859.0516 164.5653 C 859.0908 164.5653 859.443 164.5653 859.8343 164.5653 C 859.8734 164.5653 859.8752 169.5882 859.9908 169.5882 C 859.9926 169.5882 860.3822 169.5882 860.7735 169.5882 C 860.8126 169.5882 861.1648 169.5882 861.5561 169.5882 C 861.5952 169.5882 861.9474 169.5882 862.3387 169.5882 C 862.3779 169.5882 862.7301 169.5882 863.1214 169.5882 C 863.1605 169.5882 863.5127 169.5882 863.9041 169.5882 C 863.9432 169.5882 864.2954 169.5882 864.6867 169.5882 C 864.7258 169.5882 865.078 169.5882 865.4694 169.5882 C 865.5085 169.5882 865.8607 169.5882 866.252 169.5882 C 866.2911 169.5882 866.6433 169.5882 867.0346 169.5882 C 867.0738 169.5882 867.4259 169.5882 867.8173 169.5882 C 867.8564 169.5882 868.2086 169.5882 868.5999 169.5882 C 868.639 169.5882 868.9912 169.5882 869.3826 169.5882 C 869.4217 169.5882 869.7739 169.5882 870.1652 169.5882" fill="none" stroke="#5470c6" stroke-width="2" paint-order="fill" stroke-opacity="1" stroke-dasharray="none" stroke-linecap="butt" stroke-linejoin="bevel" stroke-miterlimit="10"></path></g><path d="M -5 -5 L 5 -5 L 5 5 L -5 5 L -5 -5 Z" fill="rgb(0,0,0)" fill-opacity="0" stroke="#ccc" stroke-width="0" paint-order="fill" stroke-opacity="1" stroke-dasharray="none" stroke-linecap="butt" stroke-miterlimit="10" transform="matrix(1,0,0,1,1019,300)"></path><path d="M -361 -5 L 361 -5 L 361 51 L -361 51 L -361 -5 Z" fill="rgb(0,0,0)" fill-opacity="0" stroke="#ccc" stroke-width="0" paint-order="fill" stroke-opacity="1" stroke-dasharray="none" stroke-linecap="butt" stroke-miterlimit="10" transform="matrix(1,0,0,1,512,5)"></path><text xml:space="preserve" style="font: sans-serif 24px normal normal bold 24px;" fill="#464646" fill-opacity="1" stroke="none" transform="matrix(1,0,0,1,512,5)" dominant-baseline="central" text-anchor="middle" x="0" y="12">Prometheus Metric</text><text xml:space="preserve" style="font: sans-serif 12px normal normal normal 12px;" fill="#6E7079" fill-opacity="1" stroke="none" transform="matrix(1,0,0,1,512,5)" dominant-baseline="central" text-anchor="middle" x="0" y="40">sum(rate(prometheus_notifications_latency_seconds_sum[5m]))/sum(rate(prometheus_notifications_latency_seconds_count[5m]))</text></g></svg>