<svg xmlns="http://www.w3.org/2000/svg" xmlns:xlink="http://www.w3.org/1999/xlink" version="1.1" baseProfile="full" style="user-select: none; position: absolute; left: 0px; top: 0px;" width="500" height="500"><g><rect width="500" height="500" x="0" y="0" id="0" fill="#FFF" fill-opacity="1"></rect></g><g><defs><clipPath id="zr2323-clip-0"><path d="M 49 59 L 451 59 L 451 431 L 49 431 L 49 59 Z" fill="#000" fill-opacity="1" stroke="none"></path></clipPath></defs><path d="M 50 430.5 L 450 430.5" fill="none" stroke="#E0E6F1" stroke-width="1" paint-order="fill" stroke-opacity="1" stroke-dasharray="none" stroke-linecap="butt" stroke-miterlimit="10"></path><path d="M 50 356.5 L 450 356.5" fill="none" stroke="#E0E6F1" stroke-width="1" paint-order="fill" stroke-opacity="1" stroke-dasharray="none" stroke-linecap="butt" stroke-miterlimit="10"></path><path d="M 50 282.5 L 450 282.5" fill="none" stroke="#E0E6F1" stroke-width="1" paint-order="fill" stroke-opacity="1" stroke-dasharray="none" stroke-linecap="butt" stroke-miterlimit="10"></path><path d="M 50 208.5 L 450 208.5" fill="none" stroke="#E0E6F1" stroke-width="1" paint-order="fill" stroke-opacity="1" stroke-dasharray="none" stroke-linecap="butt" stroke-miterlimit="10"></path><path d="M 50 134.5 L 450 134.5" fill="none" stroke="#E0E6F1" stroke-width="1" paint-order="fill" stroke-opacity="1" stroke-dasharray="none" stroke-linecap="butt" stroke-miterlimit="10"></path><path d="M 50 60.5 L 450 60.5" fill="none" stroke="#E0E6F1" stroke-width="1" paint-order="fill" stroke-opacity="1" stroke-dasharray="none" stroke-linecap="butt" stroke-miterlimit="10"></path><path d="M 50 430.5 L 450 430.5" fill="none" stroke="#6E7079" stroke-width="1" paint-order="fill" stroke-opacity="1" stroke-dasharray="none" stroke-linecap="round" stroke-miterlimit="10"></path><path d="M 106.5 430 L 106.5 435" fill="none" stroke="#6E7079" stroke-width="1" paint-order="fill" stroke-opacity="1" stroke-dasharray="none" stroke-linecap="butt" stroke-miterlimit="10"></path><path d="M 188.5 430 L 188.5 435" fill="none" stroke="#6E7079" stroke-width="1" paint-order="fill" stroke-opacity="1" stroke-dasharray="none" stroke-linecap="butt" stroke-miterlimit="10"></path><path d="M 269.5 430 L 269.5 435" fill="none" stroke="#6E7079" stroke-width="1" paint-order="fill" stroke-opacity="1" stroke-dasharray="none" stroke-linecap="butt" stroke-miterlimit="10"></path><path d="M 351.5 430 L 351.5 435" fill="none" stroke="#6E7079" stroke-width="1" paint-order="fill" stroke-opacity="1" stroke-dasharray="none" stroke-linecap="butt" stroke-miterlimit="10"></path><path d="M 433.5 430 L 433.5 435" fill="none" stroke="#6E7079" stroke-width="1" paint-order="fill" stroke-opacity="1" stroke-dasharray="none" stroke-linecap="butt" stroke-miterlimit="10"></path><text xml:space="preserve" style="font: sans-serif 12px normal normal normal 12px;" fill="#6E7079" fill-opacity="1" stroke="none" transform="matrix(1,0,0,1,42,430)" dominant-baseline="central" text-anchor="end" x="0" y="0">0 ms</text><text xml:space="preserve" style="font: sans-serif 12px normal normal normal 12px;" fill="#6E7079" fill-opacity="1" stroke="none" transform="matrix(1,0,0,1,42,356)" dominant-baseline="central" text-anchor="end" x="0" y="0">10 ms</text><text xml:space="preserve" style="font: sans-serif 12px normal normal normal 12px;" fill="#6E7079" fill-opacity="1" stroke="none" transform="matrix(1,0,0,1,42,282)" dominant-baseline="central" text-anchor="end" x="0" y="0">20 ms</text><text xml:space="preserve" style="font: sans-serif 12px normal normal normal 12px;" fill="#6E7079" fill-opacity="1" stroke="none" transform="matrix(1,0,0,1,42,208)" dominant-baseline="central" text-anchor="end" x="0" y="0">30 ms</text><text xml:space="preserve" style="font: sans-serif 12px normal normal normal 12px;" fill="#6E7079" fill-opacity="1" stroke="none" transform="matrix(1,0,0,1,42,134)" dominant-baseline="central" text-anchor="end" x="0" y="0">40 ms</text><text xml:space="preserve" style="font: sans-serif 12px normal normal normal 12px;" fill="#6E7079" fill-opacity="1" stroke="none" transform="matrix(1,0,0,1,42,60)" dominant-baseline="central" text-anchor="end" x="0" y="0">50 ms</text><text xml:space="preserve" style="font: sans-serif 12px normal normal normal 12px;" fill="#6E7079" fill-opacity="1" stroke="none" transform="matrix(1,0,0,1,106.3714,438)" dominant-baseline="central" text-anchor="middle" x="0" y="6">11:42</text><text xml:space="preserve" style="font: sans-serif 12px normal normal normal 12px;" fill="#6E7079" fill-opacity="1" stroke="none" transform="matrix(1,0,0,1,188.0041,438)" dominant-baseline="central" text-anchor="middle" x="0" y="6">11:43</text><text xml:space="preserve" style="font: sans-serif 12px normal normal normal 12px;" fill="#6E7079" fill-opacity="1" stroke="none" transform="matrix(1,0,0,1,269.6367,438)" dominant-baseline="central" text-anchor="middle" x="0" y="6">11:44</text><text xml:space="preserve" style="font: sans-serif 12px normal normal normal 12px;" fill="#6E7079" fill-opacity="1" stroke="none" transform="matrix(1,0,0,1,351.2694,438)" dominant-baseline="central" text-anchor="middle" x="0" y="6">11:45</text><text xml:space="preserve" style="font: sans-serif 12px normal normal normal 12px;" fill="#6E7079" fill-opacity="1" stroke="none" transform="matrix(1,0,0,1,432.902,438)" dominant-baseline="central" text-anchor="middle" x="0" y="6">11:46</text><g clip-path="url(#zr2323-clip-0)"><path d="M 50 430 C 50 430 59.5238 430 69.0476 430 C 78.5714 430 78.5714 430 88.0952 430 C 97.619 430 97.619 430 107.1429 430 C 116.6667 430 116.6667 430 126.1905 430 C 135.7143 430 143.2726 430 145.2381 430 C 162.3202 430 147.2036 265.5871 164.2857 265.5555 C 166.2512 265.5519 173.8095 265.5519 183.3333 265.5519 C 192.8571 265.5519 200.4155 265.5519 202.381 265.5555 C 219.4631 265.5871 204.3464 430 221.4286 430 C 223.3941 430 230.9524 430 240.4762 430 C 250 430 250 430 259.5238 430 C 269.0476 430 269.0476 430 278.5714 430 C 288.0952 430 295.6535 430 297.619 430 C 314.7011 430 299.5846 265.6936 316.6667 265.5665 C 318.6323 265.5519 326.1905 265.5519 335.7143 265.5519 C 345.2381 265.5519 345.2381 265.5592 354.7619 265.5592 C 364.2857 265.5592 371.844 265.5592 373.8095 265.5592 C 390.8916 265.5592 375.775 430 392.8571 430 C 394.8227 430 402.381 430 411.9048 430 C 421.4286 430 421.4286 430 430.9524 430 C 440.4762 430 450 430 450 430 L 430.9524 430 L 411.9048 430 L 392.8571 430 L 373.8095 430 L 354.7619 430 L 335.7143 430 L 316.6667 430 L 297.619 430 L 278.5714 430 L 259.5238 430 L 240.4762 430 L 221.4286 430 L 202.381 430 L 183.3333 430 L 164.2857 430 L 145.2381 430 L 126.1905 430 L 107.1429 430 L 88.0952 430 L 69.0476 430 L 50 430 Z" fill="#5470c6" fill-opacity="0.7" stroke="none"></path><path d="M 50 430 C 50 430 59.5238 430 69.0476 430 C 78.5714 430 78.5714 430 88.0952 430 C 97.619 430 97.619 430 107.1429 430 C 116.6667 430 116.6667 430 126.1905 430 C 135.7143 430 143.2726 430 145.2381 430 C 162.3202 430 147.2036 265.5871 164.2857 265.5555 C 166.2512 265.5519 173.8095 265.5519 183.3333 265.5519 C 192.8571 265.5519 200.4155 265.5519 202.381 265.5555 C 219.4631 265.5871 204.3464 430 221.4286 430 C 223.3941 430 230.9524 430 240.4762 430 C 250 430 250 430 259.5238 430 C 269.0476 430 269.0476 430 278.5714 430 C 288.0952 430 295.6535 430 297.619 430 C 314.7011 430 299.5846 265.6936 316.6667 265.5665 C 318.6323 265.5519 326.1905 265.5519 335.7143 265.5519 C 345.2381 265.5519 345.2381 265.5592 354.7619 265.5592 C 364.2857 265.5592 371.844 265.5592 373.8095 265.5592 C 390.8916 265.5592 375.775 430 392.8571 430 C 394.8227 430 402.381 430 411.9048 430 C 421.4286 430 421.4286 430 430.9524 430 C 440.4762 430 450 430 450 430" fill="none" stroke="#5470c6" stroke-width="2" paint-order="fill" stroke-opacity="1" stroke-dasharray="none" stroke-linecap="butt" stroke-linejoin="bevel" stroke-miterlimit="10"></path></g><path d="M -5 -5 L 262 -5 L 262 17 L -5 17 L -5 -5 Z" fill="rgb(0,0,0)" fill-opacity="0" stroke="#ccc" stroke-width="0" paint-order="fill" stroke-opacity="1" stroke-dasharray="none" stroke-linecap="butt" stroke-miterlimit="10" transform="matrix(1,0,0,1,55,483)"></path><path d="M 0 7 L 25 7" fill="#000" fill-opacity="1" stroke="#5470c6" stroke-width="2" paint-order="fill" stroke-opacity="1" stroke-dasharray="none" transform="matrix(1,0,0,1,56,482)"></path><path d="M 18.1 7 A 5.6 5.6 0 1 1 18.1 6.9994" fill="#5470c6" fill-opacity="1" stroke="none" transform="matrix(1,0,0,1,56,482)"></path><text xml:space="preserve" style="font: sans-serif 12px normal normal normal 12px;" fill="#333" fill-opacity="1" stroke="none" transform="matrix(1,0,0,1,56,482)" dominant-baseline="central" text-anchor="start" x="30" y="7">instance=localhost:9090 job=prometheus</text><path d="M -56.5 -5 L 56.5 -5 L 56.5 23 L -56.5 23 L -56.5 -5 Z" fill="rgb(0,0,0)" fill-opacity="0" stroke="#ccc" stroke-width="0" paint-order="fill" stroke-opacity="1" stroke-dasharray="none" stroke-linecap="butt" stroke-miterlimit="10" transform="matrix(1,0,0,1,250,5)"></path><text xml:space="preserve" style="font: sans-serif 18px normal normal bold 18px;" fill="#464646" fill-opacity="1" stroke="none" transform="matrix(1,0,0,1,250,5)" dominant-baseline="central" text-anchor="middle" x="0" y="9">gc_seconds</text></g></svg>